<?xml version="1.0" standalone="no"?>
<!DOCTYPE svg PUBLIC "-//W3C//DTD SVG 20010904//EN"
 "http://www.w3.org/TR/2001/REC-SVG-20010904/DTD/svg10.dtd">
<svg version="1.0" xmlns="http://www.w3.org/2000/svg"
 width="5000.000000pt" height="5000.000000pt" viewBox="0 0 5000.000000 5000.000000"
 preserveAspectRatio="xMidYMid meet">

<g transform="translate(0.000000,5000.000000) scale(0.100000,-0.100000)"
fill="#000000" stroke="none">
<path d="M19843 39772 c-7 -4 -14 -17 -16 -27 -2 -11 -7 -27 -11 -35 -13 -32
-953 -3005 -950 -3008 1 -2 35 13 76 35 l73 38 866 1215 c477 668 865 1218
863 1221 -2 4 3 9 10 12 17 7 17 47 1 47 -5 0 -3 5 5 10 12 8 10 10 -8 10 -31
0 -53 22 -41 41 5 8 9 19 9 24 0 6 -4 4 -9 -4 -5 -7 -22 -13 -37 -13 -16 0
-32 -5 -35 -10 -4 -7 -18 -4 -38 8 -22 13 -27 21 -18 27 7 5 -1 6 -20 2 -18
-4 -34 -2 -38 4 -3 6 -15 11 -25 11 -10 0 -22 5 -26 11 -4 8 4 9 27 4 106 -20
138 -29 134 -34 -2 -4 11 -7 28 -8 23 0 25 1 8 4 -13 3 -25 12 -28 22 -7 28
-117 66 -146 49 -11 -6 -17 -5 -17 1 0 6 -8 10 -17 8 -33 -4 -24 18 9 24 20 4
25 7 12 8 -12 0 -36 4 -54 8 -24 4 -31 3 -26 -5 5 -8 2 -10 -8 -6 -19 7 -21
21 -3 27 7 3 0 9 -15 16 -15 6 -35 8 -43 5 -9 -4 -15 0 -15 9 0 9 8 18 18 20
9 2 -1 3 -23 1 -53 -4 -53 -4 -30 -14 17 -7 15 -9 -12 -9 -23 -1 -33 4 -33 14
0 8 -5 15 -11 15 -6 0 -9 7 -6 14 8 20 -23 29 -95 30 -58 0 -72 16 -15 16 l32
1 -25 14 c-14 8 -44 14 -68 15 -39 0 -112 22 -112 34 0 10 137 -6 164 -20 34
-17 36 -17 36 -5 0 5 -14 12 -30 16 -17 4 -37 13 -45 22 -9 8 -15 10 -15 3 0
-6 -11 -5 -30 5 -17 9 -41 14 -53 11 -12 -3 -16 -3 -9 0 6 3 10 10 6 15 -3 5
6 5 20 -1 38 -14 31 -3 -8 14 -18 7 -45 12 -60 9 -19 -4 -26 -1 -26 10 0 8 -7
18 -16 21 -19 7 -16 7 -31 -2z m342 -202 c13 -5 14 -9 5 -9 -8 0 -24 4 -35 9
-13 5 -14 9 -5 9 8 0 24 -4 35 -9z m415 -170 c0 -5 -9 -10 -20 -10 -11 0 -20
5 -20 10 0 6 9 10 20 10 11 0 20 -4 20 -10z m-173 -6 c-3 -3 -12 -4 -19 -1 -8
3 -5 6 6 6 11 1 17 -2 13 -5z m133 -55 c0 -5 -13 -9 -30 -9 -28 0 -38 9 -25
22 8 8 55 -3 55 -13z m120 -35 c0 -2 -7 -4 -15 -4 -8 0 -15 4 -15 10 0 5 7 7
15 4 8 -4 15 -8 15 -10z m-36 -13 c3 -4 -6 -6 -19 -3 -14 2 -25 6 -25 8 0 8
39 4 44 -5z m51 -21 c8 -13 -5 -13 -25 0 -13 8 -13 10 2 10 9 0 20 -4 23 -10z
m56 -27 c13 -16 12 -17 -3 -4 -17 13 -22 21 -14 21 2 0 10 -8 17 -17z"/>
<path d="M20051 39724 c13 -16 29 -19 29 -5 0 5 -9 11 -21 14 -16 4 -18 3 -8
-9z"/>
<path d="M20175 39660 c-3 -5 3 -10 15 -10 12 0 18 5 15 10 -3 6 -10 10 -15
10 -5 0 -12 -4 -15 -10z"/>
<path d="M20725 39330 c-4 -6 5 -10 20 -10 15 0 24 4 20 10 -3 6 -12 10 -20
10 -8 0 -17 -4 -20 -10z"/>
<path d="M20800 39320 c-8 -5 -12 -12 -9 -15 4 -3 12 1 19 10 14 17 11 19 -10
5z"/>
<path d="M21427 38930 c-3 -13 -2 -29 3 -35 13 -16 0 -27 -16 -14 -10 8 -11
16 -3 33 13 24 2 14 -29 -28 -12 -15 -19 -32 -16 -37 3 -5 1 -8 -5 -7 -10 3
-1391 -1783 -1385 -1791 6 -8 135 78 301 203 287 213 697 545 1289 1042 225
188 290 243 386 326 49 42 41 51 -45 55 -58 2 -89 9 -127 28 -28 14 -50 27
-50 29 0 2 9 6 19 9 14 3 18 1 14 -9 -3 -9 2 -14 15 -14 12 0 24 -5 28 -11 3
-6 15 -8 27 -5 11 3 29 0 39 -5 11 -6 24 -9 30 -7 5 2 -12 15 -38 28 -27 14
-50 28 -52 33 -2 4 -15 7 -28 7 -13 0 -24 4 -24 8 0 12 -70 32 -109 32 -21 0
-30 -4 -25 -11 4 -8 0 -8 -15 0 -33 18 -25 27 20 23 53 -5 73 13 33 29 -24 10
-26 13 -10 17 10 2 22 -2 27 -9 10 -17 21 -7 14 12 -4 10 -19 13 -53 11 -26
-2 -42 1 -37 5 21 17 16 35 -7 27 -13 -3 -25 -10 -28 -13 -3 -4 -21 1 -40 12
-19 10 -27 16 -18 13 10 -3 20 -1 23 4 3 5 13 6 23 3 11 -4 14 -3 7 4 -5 6
-32 13 -60 17 -34 4 -45 3 -35 -4 12 -8 11 -10 -7 -10 -12 0 -23 6 -25 12 -3
7 -7 2 -11 -12z m69 -35 c17 -13 17 -14 2 -15 -10 0 -18 4 -18 9 0 5 -10 12
-22 14 -21 4 -21 4 -2 6 11 0 29 -6 40 -14z m90 -39 l45 -24 -38 -1 c-51 -1
-116 9 -108 17 3 4 22 5 41 3 39 -3 44 5 12 19 -13 5 -17 9 -10 9 7 1 33 -10
58 -23z m-11 -54 c-3 -3 -11 0 -18 7 -9 10 -8 11 6 5 10 -3 15 -9 12 -12z
m138 -59 c-7 -2 -19 -2 -25 0 -7 3 -2 5 12 5 14 0 19 -2 13 -5z"/>
<path d="M21755 38841 c4 -7 -4 -11 -20 -11 -15 0 -24 -4 -20 -10 7 -12 75
-14 75 -2 0 4 -9 13 -21 20 -12 8 -18 9 -14 3z"/>
<path d="M21923 38695 c0 -8 4 -12 9 -9 4 3 8 9 8 15 0 5 -4 9 -8 9 -5 0 -9
-7 -9 -15z"/>
<path d="M22915 38160 c3 -6 -1 -7 -9 -4 -11 4 -16 0 -16 -11 0 -10 5 -13 12
-9 7 4 8 3 4 -5 -5 -8 -12 -9 -19 -2 -11 9 -685 -634 -1272 -1213 l-200 -197
53 6 c63 7 179 47 242 83 158 92 1605 1005 1603 1012 -2 5 3 7 10 5 6 -2 30 9
52 25 22 16 52 35 68 41 27 11 37 29 16 29 -15 0 -143 63 -147 72 -2 4 -11 8
-20 8 -9 0 -26 7 -36 15 -11 8 -28 15 -37 15 -10 0 -19 3 -21 8 -4 9 -66 42
-80 42 -6 0 -40 14 -75 30 -34 17 -70 30 -79 30 -8 0 -12 4 -9 10 4 6 -1 7
-11 3 -12 -4 -15 -3 -10 5 4 7 1 12 -9 12 -9 0 -13 -4 -10 -10z m22 -27 c-12
-11 14 -32 31 -26 9 3 14 3 11 -1 -4 -4 -19 -9 -35 -12 -22 -3 -25 -2 -14 6
14 9 7 15 -14 11 -5 -1 -4 5 4 13 7 9 15 16 18 16 3 0 2 -3 -1 -7z m-52 -23
c3 -6 -1 -7 -9 -4 -18 7 -21 14 -7 14 6 0 13 -4 16 -10z m206 -65 c-1 -15 -24
-12 -29 3 -3 9 2 13 12 10 10 -1 17 -7 17 -13z m286 -170 c0 -8 -4 -12 -9 -9
-5 3 -6 10 -3 15 9 13 12 11 12 -6z"/>
<path d="M24602 37257 c-12 -7 -19 -17 -15 -22 4 -4 3 -5 -4 -1 -7 4 -89 -47
-195 -120 -101 -70 -541 -367 -978 -659 -1615 -1081 -2094 -1374 -2535 -1548
-216 -85 -409 -137 -630 -169 -118 -17 -609 -17 -775 0 -285 29 -644 74 -780
98 -515 88 -888 254 -1169 520 l-72 67 -42 -20 c-38 -19 -52 -36 -129 -169
-47 -82 -98 -171 -113 -199 -16 -27 -35 -61 -45 -75 -9 -14 -20 -32 -23 -40
-4 -8 -17 -32 -29 -52 -43 -70 -411 -703 -723 -1243 -465 -806 -768 -1344
-787 -1400 -22 -63 -23 -181 -3 -280 19 -92 122 -362 740 -1945 403 -1031 584
-1519 985 -2655 471 -1334 542 -1521 1082 -2870 774 -1934 1031 -2531 1439
-3347 291 -582 264 -539 894 -1395 l567 -770 107 -71 c246 -164 555 -272 841
-297 41 -3 163 -15 270 -26 246 -25 715 -38 1015 -28 332 11 564 41 820 105
163 41 859 276 1011 342 262 113 788 354 1049 481 579 283 787 407 1470 876
138 95 664 442 1170 772 506 330 1669 1088 2585 1685 2637 1718 2724 1775
2772 1818 108 94 107 125 -22 738 -161 764 -349 1646 -381 1787 -33 149 -128
496 -139 508 -8 9 -443 -161 -585 -229 -97 -46 -301 -170 -1140 -694 -653
-407 -1150 -723 -1710 -1085 -650 -421 -902 -557 -1507 -816 -319 -136 -946
-385 -1015 -403 -101 -26 -337 -49 -440 -42 -261 18 -511 132 -717 327 -202
193 -326 419 -366 672 -27 166 -1 418 64 610 102 304 362 717 701 1113 381
447 1328 1308 1843 1675 270 193 610 382 1732 964 637 330 863 449 1070 563
245 134 970 553 970 561 0 3 -47 166 -104 361 -57 195 -266 918 -466 1605
-200 688 -364 1251 -365 1253 -11 13 -425 -193 -629 -312 -389 -229 -1184
-767 -1806 -1225 -748 -550 -1070 -764 -1825 -1216 -549 -329 -697 -410 -928
-509 -473 -202 -924 -265 -1367 -190 -518 87 -837 300 -1015 676 -76 162 -181
532 -205 721 -17 130 -8 501 14 620 86 455 304 778 722 1070 45 31 85 57 88
57 4 0 19 9 34 19 15 10 194 116 397 234 361 209 946 553 994 584 26 17 46 6
-409 225 -69 33 -206 100 -305 147 -99 48 -258 125 -352 171 -149 72 -173 87
-173 106 0 13 6 103 14 201 16 192 24 304 32 423 6 98 72 927 79 1007 l6 61
-43 26 c-34 20 -38 26 -21 26 12 0 27 -8 33 -17 11 -17 11 -17 6 0 -3 9 -1 17
4 17 6 0 10 10 10 22 0 21 0 21 -15 2 -9 -11 -14 -13 -13 -5 2 9 -14 21 -42
31 -25 9 -78 33 -119 53 -40 21 -79 37 -86 37 -17 0 -75 33 -75 43 0 4 -8 7
-18 7 -10 0 -22 4 -27 8 -17 15 -104 44 -114 38 -5 -4 -13 -1 -17 5 -5 8 -3 9
6 4 9 -5 11 -4 6 3 -9 14 -6 14 -34 -1z m465 -232 c0 -18 -19 -15 -25 3 -2 7
3 12 11 12 7 0 14 -7 14 -15z"/>
<path d="M11713 14595 c0 -8 4 -12 9 -9 5 3 6 10 3 15 -9 13 -12 11 -12 -6z"/>
<path d="M18273 14595 c0 -8 4 -12 9 -9 5 3 6 10 3 15 -9 13 -12 11 -12 -6z"/>
<path d="M36592 14605 c4 -4 1 -14 -7 -21 -19 -20 -1294 -21 -1314 -1 -11 10
-13 10 -7 0 4 -7 2 -13 -3 -13 -6 0 -11 3 -11 8 0 20 -72 1 -121 -33 -164
-114 -241 -247 -241 -420 -1 -116 24 -185 91 -254 79 -81 182 -121 311 -121
259 0 428 174 389 402 -8 52 -23 87 -61 150 -92 151 -87 134 -58 163 49 49
130 69 275 70 167 0 248 -22 323 -90 107 -97 131 -197 139 -576 l6 -276 -69
-7 c-388 -38 -692 -103 -918 -195 -151 -62 -250 -125 -352 -226 -75 -74 -98
-105 -133 -175 -57 -119 -74 -192 -74 -330 0 -204 56 -345 190 -477 120 -119
264 -178 459 -190 274 -16 567 97 839 324 114 95 103 89 115 58 48 -125 135
-244 214 -290 97 -57 225 -80 361 -64 293 33 564 256 464 383 -26 33 -60 34
-141 1 -108 -44 -164 -28 -188 56 -6 21 -10 313 -10 744 0 416 -5 739 -10 780
-15 102 -46 218 -80 292 -54 119 -168 255 -238 285 -15 7 -35 19 -45 27 -16
13 -17 13 -12 -2 5 -12 2 -15 -14 -12 -12 2 -26 7 -31 10 -6 3 -10 1 -10 -4 0
-6 -7 -11 -16 -11 -13 0 -14 3 -5 14 9 11 9 16 -1 22 -7 4 -10 4 -6 -1z m-287
-1361 c9 -150 -7 -359 -35 -469 -39 -154 -118 -263 -228 -316 -63 -30 -206
-38 -284 -15 -143 41 -228 168 -228 341 0 274 190 457 575 553 94 24 119 29
161 31 l32 1 7 -126z"/>
<path d="M4512 14588 c-2 -17 -29 -18 -417 -18 -325 0 -415 3 -415 13 0 8 -4
7 -10 -3 -9 -13 -11 -13 -20 0 -9 13 -10 13 -10 0 0 -13 -1 -13 -10 0 -6 10
-10 -313 -10 -920 0 -567 -4 -970 -10 -1024 -12 -100 -39 -171 -80 -211 -38
-36 -142 -72 -251 -87 l-89 -12 0 -128 0 -128 1729 0 1730 0 5 53 c6 52 76
1212 76 1255 0 22 -2 22 -139 22 l-139 0 -12 -72 c-21 -125 -67 -291 -108
-386 -185 -428 -547 -612 -1207 -612 -454 0 -561 51 -595 286 -5 39 -10 316
-10 643 l0 573 188 -5 c204 -5 263 -16 369 -67 162 -80 263 -241 314 -502 10
-54 19 -112 19 -128 l0 -30 125 0 125 0 0 748 c0 486 -4 742 -10 732 -9 -13
-10 -13 -10 0 0 13 -1 13 -10 0 -9 -13 -11 -13 -20 0 -7 11 -10 11 -10 2 0
-10 -22 -13 -90 -11 -49 1 -90 5 -90 9 0 11 -28 6 -38 -6 -5 -5 -19 -38 -31
-74 -55 -156 -146 -272 -260 -330 -106 -53 -195 -71 -393 -77 l-178 -6 -3 259
c-1 142 -3 251 -5 242z"/>
<path d="M11671 14583 c-5 -10 -13 -17 -18 -15 -49 15 -259 -173 -392 -351
l-36 -48 -5 213 c-3 117 -7 207 -8 201 -2 -10 -107 -13 -486 -13 -378 0 -485
3 -489 13 -3 6 -6 -21 -6 -60 -1 -81 -8 -75 94 -88 55 -8 111 -33 137 -62 10
-10 24 -46 33 -80 14 -53 15 -168 13 -929 -3 -815 -4 -872 -22 -917 -27 -72
-76 -106 -193 -137 l-43 -11 0 -114 0 -115 650 0 650 0 0 115 0 115 -27 6
c-79 17 -103 26 -134 47 -18 12 -43 37 -55 55 -42 62 -46 130 -41 742 3 492 6
585 21 645 60 255 152 400 296 469 57 27 75 31 150 31 72 0 92 -4 130 -25 138
-78 154 -196 148 -1136 -4 -541 -6 -615 -21 -661 -31 -92 -84 -137 -194 -163
l-53 -12 0 -114 0 -114 650 0 650 0 0 114 0 114 -70 21 c-86 26 -141 72 -166
139 -16 43 -19 111 -24 757 -5 484 -11 739 -19 800 -20 140 -65 304 -107 390
-44 87 -124 181 -148 172 -8 -3 -17 -1 -20 6 -3 9 -5 9 -5 0 -1 -17 -751 -19
-751 -3 0 6 -5 10 -11 10 -5 0 -8 -4 -4 -9 3 -5 -9 -8 -27 -7 -18 2 -32 8 -30
15 3 17 -6 13 -17 -6z"/>
<path d="M17232 14588 c-2 -17 -33 -18 -502 -18 -393 0 -500 3 -500 13 0 8 -4
7 -10 -3 -9 -13 -10 -13 -10 0 0 13 -1 13 -10 0 -9 -13 -10 -13 -10 0 0 13 -1
13 -10 0 -5 -8 -10 -41 -10 -72 0 -64 -4 -61 94 -72 106 -13 156 -61 175 -169
14 -79 15 -1641 2 -1735 -19 -129 -65 -180 -193 -217 l-58 -16 0 -115 0 -114
655 0 655 0 0 115 0 114 -42 11 c-69 16 -149 61 -169 94 -44 71 -43 57 -49
1151 -3 578 -6 1042 -8 1033z"/>
<path d="M18239 14593 c-1 -5 -1 -11 0 -15 0 -5 -6 -8 -15 -8 -10 0 -12 5 -7
13 9 15 -35 -12 -106 -67 -69 -52 -125 -123 -165 -206 -29 -61 -31 -71 -31
-185 0 -111 2 -124 26 -170 71 -133 203 -205 374 -205 269 1 441 195 381 430
-9 36 -29 83 -43 105 -15 22 -42 64 -60 94 -39 65 -34 80 35 115 71 36 158 50
275 44 216 -12 327 -87 377 -258 30 -101 40 -215 40 -461 l0 -227 -67 -6
c-463 -46 -776 -122 -1026 -249 -183 -92 -305 -206 -376 -351 -52 -104 -71
-192 -71 -331 0 -132 15 -199 71 -313 69 -141 214 -265 367 -312 337 -105 698
-3 1064 298 l87 72 39 -82 c71 -152 161 -238 292 -279 82 -26 244 -28 342 -5
116 27 245 94 326 170 71 66 94 162 49 204 -30 28 -60 28 -135 -3 -83 -34
-126 -33 -162 3 l-28 29 -5 754 c-5 808 -6 826 -58 989 -51 155 -163 315 -268
382 -46 28 -67 36 -56 19 10 -17 -13 -22 -28 -7 -8 8 -18 12 -21 9 -11 -11
-36 -12 -36 -2 0 6 -5 7 -10 4 -6 -4 -8 -9 -6 -13 2 -4 -286 -6 -640 -4 -415
1 -644 6 -644 12 0 6 -5 10 -11 10 -5 0 -8 -4 -4 -9 3 -5 -9 -8 -27 -7 -18 2
-32 8 -30 15 1 6 0 11 -3 11 -3 0 -6 -3 -6 -7z m1085 -1284 c16 -153 2 -385
-30 -524 -37 -157 -115 -269 -223 -322 -51 -26 -66 -28 -171 -28 -101 0 -121
3 -164 24 -183 90 -241 335 -130 553 32 64 129 161 208 207 106 63 373 148
472 150 31 1 31 0 38 -60z"/>
<path d="M25444 14588 c5 -17 -6 -18 -129 -18 -147 0 -144 1 -129 -57 6 -22
10 -23 145 -23 l139 0 0 38 c0 21 -7 47 -16 58 -13 16 -15 16 -10 2z"/>
<path d="M27448 14588 c-7 -17 -38 -18 -446 -18 -241 0 -442 3 -446 7 -10 11
-48 14 -42 4 3 -5 -5 -8 -19 -7 -14 0 -25 6 -25 11 0 6 -5 3 -10 -7 -6 -9 -18
-14 -28 -11 -23 5 -156 -123 -230 -222 -67 -91 -152 -257 -191 -372 -117 -352
-119 -835 -5 -1196 123 -387 390 -663 732 -754 85 -23 117 -26 262 -26 137 0
178 3 241 21 209 57 392 202 540 428 l64 97 3 -293 2 -292 23 5 c297 66 507
93 786 104 l181 6 0 124 0 123 -87 0 c-49 0 -106 5 -128 11 -57 16 -100 64
-114 127 -8 38 -11 355 -11 1087 0 678 -3 1036 -10 1040 -5 3 -10 1 -10 -4 0
-8 -119 -11 -380 -11 l-380 0 0 -97 0 -98 -30 52 c-34 60 -128 163 -148 163
-7 0 -10 -4 -7 -10 3 -5 2 -10 -4 -10 -5 0 -13 5 -16 10 -5 8 -11 7 -21 -1
-11 -9 -14 -8 -14 2 0 12 -2 12 -9 0 -7 -11 -10 -10 -13 5 -3 18 -4 18 -10 2z
m-61 -173 c136 -61 234 -241 283 -519 66 -372 47 -936 -41 -1222 -51 -165
-149 -299 -252 -345 -72 -32 -182 -33 -252 -1 -167 76 -278 306 -319 664 -21
177 -21 587 -1 763 56 475 219 712 475 689 30 -3 78 -16 107 -29z"/>
<path d="M29001 14529 c-1 -85 2 -89 68 -89 53 0 129 -25 157 -51 52 -49 54
-76 54 -698 0 -317 5 -664 10 -771 19 -401 85 -625 225 -766 101 -102 219
-149 401 -161 335 -20 634 135 891 463 l58 74 3 -271 2 -271 43 6 c74 10 474
45 717 62 129 9 235 17 236 18 0 0 -2 53 -4 117 l-4 116 -64 6 c-94 7 -153 40
-184 102 l-25 50 -3 1063 -2 1062 -26 0 c-14 0 -22 -4 -19 -10 4 -7 -165 -10
-499 -10 -472 0 -505 1 -509 18 -3 9 -5 -18 -6 -60 -1 -88 -8 -81 98 -93 82
-9 129 -38 154 -93 22 -46 22 -57 25 -627 2 -387 -1 -613 -8 -679 -25 -218
-89 -387 -186 -495 -152 -168 -401 -173 -484 -10 -54 106 -54 88 -57 1114 -3
596 -7 944 -13 935 -9 -13 -10 -13 -10 0 0 13 -1 13 -10 0 -9 -13 -11 -13 -20
0 -6 10 -10 11 -10 3 0 -10 -106 -13 -494 -13 -463 0 -495 1 -499 18 -3 9 -5
-17 -6 -59z"/>
<path d="M45412 14593 c-6 -2 -9 -9 -6 -15 4 -6 -1 -8 -14 -4 -43 14 -258
-177 -380 -338 l-52 -69 0 202 0 201 -495 0 -495 0 0 -60 c0 -66 -5 -63 91
-75 26 -3 66 -16 90 -28 54 -27 77 -70 90 -166 6 -42 9 -403 7 -898 -3 -753
-5 -833 -21 -879 -24 -72 -77 -117 -167 -145 l-70 -21 0 -114 0 -114 650 0
650 0 0 114 0 113 -67 17 c-84 20 -136 56 -163 110 -37 77 -42 176 -37 723 4
560 9 621 63 782 54 163 150 287 261 339 49 23 72 27 148 27 81 0 95 -3 137
-28 56 -33 90 -85 114 -177 16 -58 18 -143 21 -792 3 -484 1 -747 -6 -785 -22
-117 -74 -170 -193 -199 l-68 -17 0 -113 0 -114 655 0 655 0 0 115 0 114 -42
11 c-128 32 -186 85 -206 187 -8 38 -13 285 -16 728 -3 555 -7 690 -20 785
-21 143 -46 244 -85 346 -33 83 -115 205 -152 224 -15 8 -19 9 -15 1 12 -18
-16 -12 -30 7 -12 16 -13 15 -14 -8 0 -14 -4 -20 -8 -15 -18 25 -40 36 -48 24
-4 -7 -3 -9 4 -5 6 3 13 2 17 -4 4 -6 -114 -10 -339 -12 -189 -2 -342 0 -340
4 2 4 0 9 -6 13 -5 3 -10 2 -10 -4 0 -10 -19 -9 -37 2 -7 5 -13 4 -13 -1 0 -5
-7 -9 -15 -9 -9 0 -14 6 -11 14 3 7 4 13 3 12 -1 0 -8 -3 -15 -6z"/>
<path d="M6650 14580 c0 -8 -38 -10 -130 -8 -143 3 -141 4 -124 -59 6 -22 10
-23 145 -23 l139 0 0 36 c0 19 -7 42 -15 50 -9 9 -15 11 -15 4z"/>
<path d="M7107 14584 c-4 -4 -7 -35 -7 -70 0 -68 6 -74 76 -74 49 0 129 -28
156 -55 52 -51 51 -45 58 -865 6 -647 9 -780 23 -865 56 -334 157 -512 339
-598 108 -51 164 -62 323 -61 156 0 228 14 353 66 162 67 358 229 492 406 l55
72 3 -276 2 -276 38 6 c86 14 857 76 937 76 12 0 15 21 15 119 l0 118 -69 5
c-138 10 -193 59 -212 190 -5 35 -9 514 -9 1066 l0 1002 -520 0 c-359 0 -520
3 -520 11 0 5 -4 7 -10 4 -5 -3 -10 -35 -10 -70 0 -70 5 -75 69 -75 56 0 134
-26 160 -54 49 -52 51 -75 51 -714 0 -484 -3 -614 -15 -698 -44 -295 -168
-490 -349 -545 -118 -37 -233 -11 -291 66 -39 50 -63 138 -74 272 -7 70 -11
463 -11 961 l0 842 -519 0 c-358 0 -520 3 -523 11 -2 5 -7 7 -11 3z"/>
<path d="M13955 14580 c3 -5 -2 -10 -12 -10 -28 0 -143 -92 -231 -185 -219
-231 -334 -510 -362 -876 -23 -303 28 -587 150 -829 232 -460 671 -713 1190
-686 137 6 223 22 345 62 358 117 666 441 788 829 97 310 94 711 -9 1021 -78
236 -242 468 -426 606 -71 53 -136 89 -123 68 3 -5 1 -10 -4 -10 -6 0 -11 5
-11 10 0 6 -8 10 -17 10 -15 0 -16 -2 -3 -10 10 -6 -188 -10 -570 -11 -673 -1
-671 -1 -686 14 -11 11 -26 8 -19 -3z m799 -83 c209 -97 276 -412 263 -1242
-6 -374 -19 -533 -57 -693 -39 -165 -125 -282 -232 -318 -68 -22 -197 -16
-253 13 -83 44 -152 140 -189 263 -94 310 -98 1335 -7 1692 57 221 180 327
365 312 33 -2 82 -15 110 -27z"/>
<path d="M22417 14576 c-4 -10 -7 -433 -7 -940 0 -587 -4 -952 -11 -1006 -12
-97 -38 -166 -79 -205 -38 -36 -142 -72 -251 -87 l-89 -12 0 -128 0 -128 1729
0 1730 0 5 43 c5 42 76 1222 76 1265 0 22 -2 22 -139 22 l-139 0 -12 -72 c-35
-217 -108 -418 -202 -559 -204 -305 -543 -439 -1113 -439 -376 0 -497 35 -560
159 -39 78 -44 161 -45 765 l0 578 188 -5 c201 -5 259 -16 367 -66 122 -57
219 -177 276 -344 28 -81 59 -233 59 -288 l0 -29 125 0 125 0 0 748 c0 423 -4
741 -9 733 -7 -11 -10 -11 -15 0 -5 11 -7 11 -12 2 -4 -9 -32 -13 -88 -13 -52
0 -87 5 -95 13 -11 10 -13 10 -7 0 4 -7 3 -13 -1 -13 -5 0 -15 6 -22 13 -11
10 -13 10 -7 0 4 -7 2 -13 -3 -13 -6 0 -11 5 -11 12 0 23 -17 -7 -29 -52 -26
-92 -90 -209 -149 -269 -114 -117 -245 -159 -514 -168 l-178 -6 0 241 0 242
-420 0 c-329 0 -420 3 -420 13 0 8 -4 7 -10 -3 -9 -13 -10 -13 -10 0 0 12 -2
13 -9 1 -7 -11 -9 -11 -13 0 -3 9 -6 8 -11 -5z"/>
<path d="M32826 14583 c-4 -4 -20 -8 -36 -8 -75 -1 -314 -213 -418 -369 -63
-95 -122 -213 -157 -318 -103 -311 -106 -740 -5 -1047 147 -450 504 -763 953
-836 122 -20 369 -19 483 0 257 45 470 159 670 359 102 103 215 244 214 270
-1 6 -41 39 -90 74 l-89 63 -37 -43 c-73 -84 -206 -207 -280 -258 -184 -127
-358 -166 -538 -120 -101 26 -167 62 -235 131 -126 127 -196 306 -237 604 -24
176 -24 579 -1 751 66 484 244 694 587 694 141 0 258 -37 328 -103 55 -52 45
-78 -74 -193 -112 -108 -149 -182 -148 -299 0 -97 24 -158 87 -224 138 -143
439 -139 586 8 131 131 147 363 40 581 -61 123 -210 268 -292 285 -10 2 -15 0
-12 -5 3 -5 -256 -9 -621 -10 -345 0 -630 -3 -634 -5 -4 -3 -10 2 -14 10 -6
16 -18 19 -30 8z"/>
<path d="M39201 14583 c-1 -10 -172 -13 -821 -13 l-820 0 0 -60 0 -60 155 0
155 0 0 -872 c0 -573 4 -904 11 -963 44 -357 167 -533 421 -602 89 -24 337
-24 428 0 359 95 550 403 577 930 l6 127 -120 0 -119 0 -17 -137 c-29 -236
-74 -370 -147 -443 -48 -48 -88 -58 -137 -33 -70 34 -105 115 -123 283 -5 54
-10 440 -10 903 l0 807 295 0 295 0 0 66 c0 37 -4 63 -9 60 -5 -4 -12 0 -14 6
-4 10 -6 10 -6 1z"/>
<path d="M39537 14576 c-4 -10 -7 -42 -7 -72 0 -60 -4 -57 94 -68 68 -8 127
-43 149 -88 34 -69 39 -211 35 -1030 -4 -730 -6 -797 -22 -848 -30 -91 -90
-136 -218 -164 l-28 -6 0 -115 0 -115 660 0 660 0 0 115 0 115 -27 6 c-118 26
-190 75 -214 149 -11 32 -14 243 -17 1078 l-2 1037 -505 0 c-397 0 -505 3
-505 13 0 8 -4 7 -10 -3 -9 -13 -10 -13 -10 0 0 12 -2 13 -9 1 -7 -11 -9 -11
-13 0 -3 9 -6 8 -11 -5z"/>
<path d="M41696 14548 c-33 -23 -95 -75 -139 -117 -206 -196 -337 -450 -387
-746 -65 -389 -9 -767 158 -1060 242 -426 662 -656 1156 -632 330 17 598 135
821 363 191 195 317 448 367 739 27 161 22 486 -11 637 -59 269 -178 495 -355
674 -99 99 -256 216 -231 172 6 -10 5 -10 -5 -1 -9 8 -19 9 -32 2 -12 -6 -18
-6 -18 1 0 5 -5 10 -11 10 -5 0 -7 -4 -4 -10 4 -7 -203 -9 -609 -7 -339 1
-616 -1 -616 -5 0 -4 -7 -5 -16 -1 -13 5 -13 7 -2 14 7 5 9 9 3 8 -5 0 -37
-19 -69 -41z m857 -50 c65 -28 138 -110 170 -192 63 -155 86 -358 94 -806 12
-700 -40 -1044 -179 -1182 -69 -69 -106 -83 -223 -83 -121 0 -156 15 -233 99
-97 107 -140 289 -162 681 -25 461 1 984 61 1203 59 219 181 321 364 306 33
-3 81 -15 108 -26z"/>
<path d="M6001 11441 c-7 -5 -21 -6 -32 -4 -10 3 -32 -2 -50 -11 -18 -9 -40
-16 -49 -16 -10 0 -34 -11 -54 -25 -20 -13 -42 -22 -50 -19 -8 3 -30 -9 -49
-26 -20 -17 -42 -30 -49 -28 -13 3 -61 -31 -132 -93 -23 -20 -51 -41 -63 -48
-38 -19 -201 -174 -240 -226 -12 -16 -33 -50 -47 -75 -13 -25 -33 -63 -45 -85
-23 -43 -28 -123 -10 -156 15 -29 87 -57 129 -51 28 3 33 2 23 -8 -15 -16 -73
-51 -140 -85 -29 -14 -61 -36 -70 -49 -10 -12 -31 -26 -47 -30 -16 -4 -61 -40
-103 -81 -41 -41 -78 -75 -82 -75 -5 0 -26 -26 -49 -57 -22 -32 -51 -69 -65
-82 -15 -13 -29 -38 -33 -55 -3 -17 -12 -38 -19 -46 -16 -19 -39 -90 -31 -97
3 -4 1 -12 -6 -20 -6 -8 -13 -50 -14 -93 -3 -81 9 -131 42 -168 8 -9 26 -31
39 -48 14 -18 60 -49 109 -73 77 -39 90 -42 152 -40 45 1 92 11 134 27 57 21
79 28 101 31 3 1 11 13 18 27 7 17 17 24 27 20 27 -10 175 73 232 130 30 29
51 58 48 63 -4 5 -2 12 3 15 5 4 12 2 16 -4 13 -21 57 -10 83 21 15 17 46 46
70 64 23 18 82 69 130 113 48 44 115 103 149 131 34 28 67 59 75 69 7 11 40
42 72 70 72 61 85 83 86 145 0 36 -4 47 -16 47 -15 0 -70 -44 -184 -148 -32
-29 -80 -69 -106 -89 -27 -21 -51 -41 -52 -45 -6 -14 -102 -102 -125 -115 -12
-6 -25 -9 -28 -7 -4 2 -14 -7 -22 -20 -9 -13 -37 -36 -64 -51 -26 -16 -84 -56
-128 -90 -44 -33 -94 -68 -110 -77 -61 -33 -150 -73 -166 -73 -9 0 -22 -5 -30
-11 -31 -23 -68 -31 -147 -30 -80 1 -85 3 -109 30 -22 26 -24 36 -20 80 9 84
26 147 47 180 10 17 30 51 44 76 13 25 39 60 56 79 17 19 40 50 51 70 10 20
19 32 19 27 0 -5 8 -2 18 6 9 8 25 18 35 21 9 4 17 13 17 22 0 8 9 15 19 15
12 0 21 9 25 24 3 14 15 28 26 31 11 3 32 22 47 41 14 19 32 33 39 30 7 -3 24
8 36 23 13 16 37 36 53 45 33 18 45 25 120 72 90 56 156 85 225 98 49 10 79
22 107 45 68 54 104 146 71 179 -15 15 -81 16 -128 1 -19 -5 -44 -12 -54 -14
-51 -11 -129 -42 -217 -86 -53 -27 -101 -49 -106 -49 -4 0 -29 -11 -56 -25
-44 -24 -64 -21 -33 4 7 6 21 33 31 59 9 26 27 56 40 67 12 11 38 45 57 75 48
76 199 223 261 256 29 14 69 44 90 65 21 21 47 39 58 39 11 0 41 11 67 25 33
17 63 25 99 25 48 0 54 -3 68 -30 19 -37 19 -74 0 -94 -8 -8 -15 -19 -15 -25
0 -6 -15 -17 -32 -24 -64 -27 -81 -75 -46 -127 19 -28 30 -35 58 -35 26 0 37
6 52 30 28 48 69 138 64 143 -3 2 1 17 9 31 27 53 -2 192 -45 211 -8 4 -29 14
-46 23 -17 9 -40 14 -51 11 -11 -3 -24 -1 -27 5 -8 13 -36 14 -55 2z m-651
-851 c-8 -5 -22 -9 -30 -9 -10 0 -8 3 5 9 27 12 43 12 25 0z"/>
<path d="M22600 11313 c-31 -11 -104 -91 -163 -178 -33 -49 -73 -105 -89 -123
-15 -18 -28 -44 -28 -58 0 -16 -8 -27 -23 -33 -15 -6 -38 -38 -66 -93 -24 -45
-66 -126 -93 -178 -28 -52 -61 -126 -74 -164 -13 -38 -34 -83 -47 -100 -13
-17 -27 -41 -31 -53 -11 -34 -20 -28 -42 25 -25 58 -78 90 -122 74 -15 -5 -36
-10 -47 -10 -30 0 -67 -10 -79 -22 -5 -5 -18 -10 -27 -10 -9 0 -22 -7 -29 -16
-8 -8 -29 -22 -48 -30 -19 -8 -80 -60 -136 -117 -90 -91 -108 -116 -170 -232
-38 -71 -70 -143 -71 -160 -1 -16 -5 -38 -10 -48 -11 -26 4 -106 30 -157 34
-67 66 -92 122 -97 57 -6 104 11 155 56 20 17 42 31 50 31 8 0 22 15 31 34 9
19 25 37 36 41 12 3 21 10 21 14 0 5 11 20 25 35 14 15 25 34 25 43 0 11 6 14
21 10 16 -4 24 1 34 27 8 18 25 40 39 49 13 9 27 25 30 35 4 10 18 25 32 33
14 7 33 26 41 43 18 35 30 23 38 -44 16 -125 38 -183 84 -219 64 -51 152 -59
221 -21 14 8 30 13 37 12 6 -1 20 9 31 23 11 14 27 25 36 25 9 0 19 7 23 16 3
8 16 20 30 25 13 5 28 20 33 34 5 14 14 25 19 25 5 0 37 27 71 61 34 33 64 59
66 56 8 -8 -16 -59 -41 -89 -33 -40 -34 -93 -1 -123 14 -13 30 -42 36 -64 6
-23 18 -45 26 -48 9 -3 20 -16 25 -30 5 -13 17 -26 26 -29 10 -3 30 -12 44
-19 25 -14 46 -14 89 0 10 3 28 0 39 -7 26 -16 84 -1 201 52 47 21 95 41 108
45 13 4 27 18 32 31 6 15 18 24 30 24 29 0 97 47 104 72 4 17 8 19 20 9 12
-10 21 -4 52 34 21 25 54 56 74 69 19 13 49 35 65 50 17 14 49 36 72 47 24 11
45 25 48 29 3 5 19 15 35 24 28 14 29 13 20 -4 -12 -22 -32 -71 -35 -85 -2 -5
-35 -43 -73 -83 -76 -78 -92 -111 -92 -193 0 -55 32 -108 73 -122 25 -8 32 -5
64 27 20 20 42 36 49 36 7 0 17 6 21 14 4 7 18 19 31 25 13 7 27 23 32 37 8
19 14 23 26 16 17 -10 74 32 74 55 0 7 12 21 28 30 15 10 73 56 128 103 56 47
113 90 125 97 13 6 52 25 87 42 54 28 63 30 68 16 4 -9 8 -73 9 -143 5 -208 7
-222 43 -275 64 -92 172 -115 252 -54 24 17 51 37 61 43 10 6 28 22 39 36 11
14 41 40 67 57 43 29 99 77 240 209 31 28 60 52 65 52 5 0 13 11 20 25 6 13
14 23 18 20 8 -5 120 101 120 115 0 5 7 10 15 10 7 0 18 6 22 13 4 6 15 18 24
24 14 12 15 7 7 -44 -5 -31 -12 -61 -15 -67 -4 -6 -8 -76 -9 -156 -1 -129 1
-154 24 -225 29 -94 54 -132 96 -150 25 -11 35 -11 57 1 32 16 39 31 46 110 6
62 -6 100 -56 179 -32 50 -32 104 -2 278 5 28 12 72 16 97 4 25 10 54 14 65
42 105 62 136 134 209 43 43 87 96 97 117 25 48 76 123 92 136 7 5 63 20 123
33 61 12 120 26 131 31 17 6 27 2 44 -16 13 -14 29 -21 41 -18 27 7 101 96
133 160 25 50 25 52 7 74 -18 22 -18 22 -82 6 -35 -10 -76 -19 -90 -21 -14 -2
-48 -10 -75 -19 -27 -8 -71 -18 -98 -22 l-49 -7 8 54 c9 61 9 63 0 103 -28
135 -109 87 -272 -162 -16 -23 -36 -43 -45 -43 -10 0 -39 -8 -65 -19 -26 -10
-75 -22 -108 -26 -32 -4 -66 -9 -75 -11 -8 -2 -51 -13 -95 -25 -72 -18 -158
-39 -224 -54 -13 -3 -35 -12 -50 -19 -14 -7 -34 -11 -43 -9 -9 3 -26 0 -37 -6
-11 -6 -37 -13 -58 -16 -21 -4 -61 -13 -89 -20 -97 -28 -150 -119 -111 -194
23 -44 40 -47 88 -13 41 29 133 59 204 68 17 2 41 8 55 13 14 6 52 15 85 22
33 6 72 17 86 25 14 7 66 18 114 25 50 6 95 18 103 26 8 8 24 12 35 9 11 -3
33 2 49 10 26 13 28 13 28 -4 0 -56 -122 -234 -237 -344 -32 -31 -71 -70 -86
-87 -16 -17 -32 -31 -38 -31 -5 0 -9 -6 -9 -12 0 -7 -35 -44 -76 -83 -42 -38
-97 -91 -123 -116 -25 -26 -69 -61 -97 -78 -29 -18 -59 -45 -70 -66 -10 -19
-24 -33 -30 -31 -7 3 -35 -18 -63 -45 -67 -65 -90 -65 -117 -1 -20 46 -20 49
-3 72 27 37 36 257 13 306 -44 92 -111 124 -197 94 -99 -34 -237 -110 -237
-130 0 -4 -20 -17 -44 -29 -25 -11 -51 -30 -59 -42 -18 -25 -77 -63 -85 -55
-3 3 0 17 6 31 30 65 5 160 -56 218 -23 22 -40 29 -78 30 -45 2 -50 0 -72 -35
-25 -37 -144 -109 -169 -101 -6 2 -28 -13 -48 -33 -58 -58 -212 -173 -286
-213 -19 -11 -41 -27 -48 -35 -7 -9 -17 -13 -22 -10 -5 2 -23 -9 -40 -26 -18
-16 -36 -30 -41 -30 -5 0 -24 -11 -42 -25 -18 -14 -40 -25 -50 -25 -9 0 -33
-7 -52 -15 -69 -29 -168 -35 -192 -12 -16 17 -6 97 13 97 7 0 24 9 38 20 15
12 28 20 29 20 12 -5 41 17 49 36 4 13 16 24 25 24 20 0 110 65 118 85 3 8 14
15 25 15 10 0 26 11 35 25 9 14 26 25 37 25 25 0 97 50 166 116 63 61 70 95
26 144 -21 23 -42 33 -87 41 -61 11 -153 6 -184 -9 -9 -5 -23 -7 -30 -5 -7 3
-23 -1 -35 -9 -12 -8 -43 -22 -69 -32 -46 -17 -138 -102 -138 -128 0 -7 -13
-21 -29 -30 -17 -9 -41 -39 -56 -68 -15 -29 -29 -49 -33 -46 -3 4 -6 25 -6 49
-1 31 -5 43 -18 45 -22 4 -74 -35 -99 -74 -10 -18 -45 -51 -77 -75 -31 -24
-76 -61 -99 -82 -33 -31 -146 -107 -158 -107 -3 0 -15 94 -19 140 -1 19 1 49
6 65 4 17 9 46 11 65 10 78 20 120 33 131 8 6 14 17 14 24 0 7 14 30 31 51 21
27 28 45 24 61 -4 18 1 25 29 38 20 9 37 26 40 39 3 13 17 31 31 40 14 9 25
25 25 35 0 29 11 51 24 51 12 0 20 14 71 111 12 21 26 44 33 51 7 7 12 18 12
25 0 8 20 44 44 81 45 69 127 262 152 359 12 48 12 58 -1 84 -15 29 -69 70
-90 68 -5 0 -17 -3 -25 -6z m-52 -370 c-18 -38 -51 -93 -73 -123 -22 -30 -54
-75 -70 -100 -17 -25 -36 -49 -43 -53 -7 -5 -26 -27 -42 -49 -17 -23 -30 -36
-30 -30 0 6 14 27 30 45 17 19 30 41 30 49 0 26 40 98 61 111 12 6 31 35 43
62 13 28 45 84 72 125 39 61 49 71 52 53 2 -13 -11 -53 -30 -90z m572 -704 c0
-5 -6 -9 -14 -9 -8 0 -25 -12 -38 -27 -51 -61 -260 -204 -275 -189 -13 13 56
112 102 146 60 45 131 80 159 80 12 0 28 4 36 9 15 10 30 6 30 -10z m-1190
-18 c0 -5 -25 -41 -55 -80 -30 -39 -55 -75 -55 -79 0 -5 -12 -19 -26 -33 -14
-13 -29 -32 -33 -41 -10 -27 -268 -254 -313 -277 -50 -24 -64 -19 -71 25 -7
40 16 101 63 171 17 24 30 50 30 58 0 7 18 28 40 45 22 17 40 37 40 44 0 7 23
27 50 45 28 18 58 44 67 57 9 14 21 23 28 20 7 -2 27 4 44 15 17 10 46 19 64
20 17 1 43 5 57 9 35 11 70 12 70 1z"/>
<path d="M37641 11247 c-28 -29 -78 -93 -111 -142 -34 -50 -72 -101 -86 -116
-13 -14 -24 -37 -24 -50 0 -17 -8 -29 -23 -36 -15 -7 -39 -43 -66 -97 -24 -47
-49 -91 -57 -97 -8 -6 -14 -17 -14 -23 0 -7 -22 -56 -50 -110 -27 -54 -50
-105 -50 -114 0 -10 -14 -39 -30 -67 -16 -27 -34 -62 -41 -77 -15 -38 -25 -35
-41 14 -16 52 -69 93 -108 83 -14 -3 -44 -7 -67 -10 -25 -2 -79 -22 -125 -47
-66 -34 -105 -64 -188 -148 -95 -95 -111 -117 -173 -234 -38 -71 -70 -143 -71
-160 -2 -17 -6 -38 -10 -47 -4 -9 -3 -43 3 -77 20 -127 97 -194 202 -177 23 4
60 23 89 46 27 21 54 39 59 39 6 0 18 12 28 28 10 15 37 45 60 67 23 22 47 52
52 67 7 18 15 26 25 22 9 -3 19 4 27 18 17 32 88 111 115 125 11 7 27 27 35
44 l13 32 12 -34 c7 -19 13 -46 13 -61 1 -36 20 -115 37 -156 8 -19 32 -44 61
-62 59 -37 137 -41 196 -10 20 11 44 20 52 20 8 0 19 9 25 20 6 11 19 20 29
20 10 0 24 11 31 25 7 14 20 24 29 23 8 -2 20 7 26 19 6 12 35 41 63 64 29 24
52 46 52 51 0 4 5 8 11 8 6 0 25 11 43 25 18 14 38 25 43 25 6 0 17 7 24 16
14 17 59 37 66 30 3 -3 -4 -18 -15 -34 -46 -64 -92 -166 -92 -202 0 -65 77
-182 142 -216 15 -8 42 -16 62 -19 30 -5 40 -1 85 40 29 25 58 45 67 45 8 0
20 11 26 25 6 14 17 25 23 25 7 0 30 19 52 43 22 23 63 60 91 82 28 22 51 46
52 53 0 6 7 12 16 12 15 0 66 43 134 114 l38 38 -3 -42 c-1 -23 -8 -47 -14
-53 -6 -6 -11 -27 -11 -47 0 -20 -5 -41 -11 -47 -6 -6 -13 -36 -15 -67 -4 -55
-4 -56 59 -133 76 -95 101 -103 151 -49 18 20 40 36 48 36 9 0 26 12 37 26 21
27 101 89 101 78 0 -14 57 32 113 93 34 36 66 62 73 59 14 -5 57 47 61 72 1 8
-10 32 -24 53 -22 33 -28 37 -46 28 -33 -18 -107 -91 -107 -105 0 -8 -8 -14
-18 -14 -10 0 -46 -27 -80 -60 -35 -33 -69 -60 -76 -60 -7 0 -25 -9 -39 -20
-14 -11 -28 -20 -31 -20 -9 0 -7 35 3 46 5 5 18 43 29 84 12 42 37 109 56 150
34 71 44 122 28 146 -4 6 -31 32 -61 58 -50 42 -59 46 -98 42 -32 -3 -56 -14
-88 -41 -79 -64 -204 -188 -211 -207 -3 -10 -10 -18 -16 -18 -6 0 -32 -19 -58
-42 -69 -62 -101 -88 -109 -88 -4 0 -27 -20 -51 -45 -24 -25 -48 -45 -53 -45
-5 0 -31 -16 -57 -35 -63 -46 -68 -30 -24 71 19 43 34 87 34 96 0 10 6 18 14
18 16 0 59 59 80 112 9 20 20 39 26 43 15 9 12 62 -4 93 -8 15 -32 44 -53 64
-38 37 -38 37 -88 26 -27 -5 -58 -18 -69 -27 -10 -9 -20 -15 -23 -13 -2 2 -13
-8 -24 -22 -11 -15 -28 -26 -38 -26 -10 0 -28 -11 -41 -25 -13 -14 -30 -25
-37 -25 -8 0 -16 -7 -19 -15 -4 -9 -19 -15 -35 -15 -22 0 -41 -12 -74 -47
-120 -128 -315 -283 -355 -283 -6 0 -10 15 -11 33 -1 17 -4 43 -8 57 -8 28 7
170 26 249 8 36 41 99 71 138 16 22 22 40 18 56 -4 19 0 25 25 34 19 7 35 23
42 42 6 16 21 34 34 40 15 7 23 19 23 35 0 13 7 30 16 37 18 15 84 115 84 128
0 4 8 19 19 32 10 13 19 29 19 34 1 6 21 44 46 85 51 84 118 241 147 342 22
78 17 101 -31 141 -49 42 -79 36 -139 -26z m39 -239 c0 -30 -50 -128 -100
-198 -22 -30 -54 -77 -73 -104 -53 -79 -77 -71 -37 11 11 23 30 50 43 60 13
10 34 40 46 67 26 59 103 185 114 186 4 0 7 -10 7 -22z m-266 -418 c-15 -22
-28 -40 -31 -40 -6 0 18 43 35 63 25 29 24 19 -4 -23z m-384 -389 c0 -3 -25
-39 -55 -79 -30 -40 -55 -77 -55 -81 0 -4 -13 -20 -30 -36 -16 -16 -30 -34
-30 -39 0 -12 -197 -191 -274 -248 -28 -22 -61 -38 -76 -38 -24 0 -28 5 -33
37 -6 36 23 109 86 214 29 48 109 139 123 139 5 0 30 20 55 45 24 24 53 45 64
45 11 0 33 9 50 20 16 10 39 17 50 14 11 -3 38 2 60 9 38 13 65 13 65 -2z"/>
<path d="M19715 11142 c-28 -26 -62 -66 -75 -89 -13 -24 -27 -43 -32 -43 -5 0
-24 -25 -44 -55 -19 -31 -39 -53 -44 -50 -4 3 -29 -4 -55 -15 -26 -11 -66 -22
-89 -25 -22 -3 -57 -7 -76 -9 -19 -2 -75 -16 -125 -31 -49 -14 -99 -28 -110
-30 -51 -9 -118 -26 -152 -39 -21 -8 -45 -14 -53 -14 -13 0 -51 -8 -172 -37
-101 -23 -163 -118 -125 -192 28 -54 39 -56 87 -22 40 29 155 69 199 69 11 0
32 5 48 11 15 6 39 13 53 14 37 4 113 25 125 34 13 11 114 32 163 35 20 1 49
9 63 19 14 10 33 15 42 12 8 -4 30 1 47 10 l33 17 -7 -28 c-19 -73 -103 -198
-198 -296 -54 -55 -98 -103 -98 -108 0 -5 -16 -18 -35 -30 -19 -12 -35 -26
-35 -31 0 -5 -37 -44 -81 -87 -45 -42 -93 -89 -108 -103 -70 -68 -181 -149
-205 -149 -2 0 -1 12 4 28 5 15 13 43 19 62 6 19 10 51 10 70 -1 19 0 40 2 45
1 6 -1 30 -6 55 -24 124 -47 206 -68 249 -60 122 -177 113 -201 -16 -18 -90
-234 -316 -356 -369 -58 -26 -79 -95 -40 -134 15 -15 25 -18 39 -11 58 31 248
187 329 270 84 85 95 94 103 76 11 -28 11 -137 -1 -155 -6 -9 -5 -19 3 -29 9
-11 7 -17 -11 -29 -14 -9 -22 -25 -22 -42 0 -15 -11 -42 -25 -61 -14 -19 -33
-50 -42 -70 -23 -48 -83 -83 -126 -73 -17 3 -39 11 -48 17 -12 8 -33 7 -73 -2
-47 -10 -62 -19 -91 -55 -19 -24 -35 -48 -35 -54 0 -23 83 -121 113 -135 55
-24 124 -22 167 7 21 14 51 28 67 32 30 8 81 34 125 65 14 11 32 19 40 19 7 0
21 9 31 20 9 11 24 20 33 20 9 0 33 10 53 22 42 26 40 25 111 88 30 27 58 50
63 50 13 0 110 70 152 110 22 21 65 61 95 90 30 28 62 56 72 61 9 5 25 23 35
39 9 17 21 30 25 30 5 0 21 14 37 32 l29 32 -9 -49 c-4 -28 -12 -64 -18 -82
-8 -27 -13 -137 -12 -278 0 -49 35 -168 63 -213 38 -62 92 -75 133 -32 26 27
28 36 28 103 -1 74 -2 79 -58 172 -21 35 -24 49 -20 125 2 47 8 96 13 110 5
14 13 58 17 99 8 81 47 188 91 248 15 21 53 63 85 93 31 30 69 77 84 105 16
27 32 54 37 60 54 69 61 73 175 91 20 3 47 10 60 15 56 21 85 20 109 -2 20
-19 28 -21 48 -11 40 18 146 171 146 210 0 26 -42 40 -85 29 -11 -3 -49 -13
-85 -21 -36 -9 -81 -21 -100 -27 -18 -7 -55 -13 -82 -15 l-47 -3 2 84 c2 71
-1 88 -19 112 -31 42 -53 39 -109 -15z"/>
<path d="M42084 11125 c-18 -19 -36 -35 -41 -35 -5 0 -17 -17 -28 -37 -11 -21
-34 -54 -51 -73 -17 -19 -39 -50 -48 -67 -10 -20 -24 -33 -36 -33 -11 0 -41
-8 -67 -19 -26 -10 -75 -22 -108 -26 -32 -4 -66 -9 -75 -11 -8 -2 -49 -13 -90
-25 -41 -11 -97 -25 -124 -29 -27 -5 -77 -18 -110 -28 -34 -11 -97 -27 -141
-37 -167 -36 -201 -51 -235 -107 -23 -38 -21 -94 4 -134 21 -31 39 -30 84 5
36 27 123 57 197 66 20 3 44 9 53 14 9 4 35 11 58 14 22 4 74 17 115 31 41 13
104 27 141 31 38 4 72 13 79 21 6 8 23 13 38 12 14 -1 37 4 49 11 33 18 36 10
15 -40 -34 -87 -87 -163 -184 -264 -54 -56 -99 -107 -99 -114 0 -6 -4 -11 -10
-11 -5 0 -51 -42 -102 -92 -51 -51 -100 -94 -108 -96 -8 -2 -30 -20 -50 -40
-19 -20 -44 -44 -55 -52 -11 -9 -55 -48 -97 -88 -43 -40 -84 -72 -92 -72 -10
0 -15 16 -18 56 -1 31 0 58 4 60 4 2 16 30 28 62 12 31 33 72 46 90 54 70 71
164 38 211 -15 20 -22 22 -66 18 -52 -6 -79 -23 -106 -69 -22 -38 -31 -35 -38
14 -10 58 -50 100 -94 99 -19 -1 -48 -1 -64 -1 -15 -1 -45 -9 -66 -20 -21 -10
-40 -17 -42 -14 -8 7 -155 -72 -223 -119 -79 -55 -222 -192 -246 -237 -11 -19
-31 -50 -44 -69 -14 -19 -25 -44 -25 -56 0 -13 -7 -25 -15 -29 -20 -7 -20 -80
1 -160 19 -73 27 -84 79 -107 76 -35 130 -22 250 57 87 58 195 147 201 166 3
10 12 18 20 18 28 0 124 76 124 98 0 9 60 43 60 34 6 -213 17 -252 78 -270 22
-7 48 -12 58 -12 28 0 107 29 119 43 14 17 72 57 82 57 5 0 20 12 35 28 14 15
51 50 82 77 97 86 136 125 136 135 0 6 5 10 12 10 7 0 21 9 33 20 11 11 37 35
58 54 22 19 44 40 50 46 106 109 120 112 97 21 -7 -25 -14 -55 -16 -66 -3 -11
-5 -81 -5 -155 -1 -119 2 -145 25 -217 33 -102 71 -146 124 -141 54 5 75 40
74 126 0 71 -9 97 -56 167 -14 20 -24 48 -24 64 1 15 -1 32 -4 37 -3 5 1 38 9
74 8 36 19 103 24 150 6 47 14 94 19 105 4 11 15 39 24 63 21 56 81 136 141
187 25 22 57 61 70 86 38 73 84 137 103 143 22 7 97 23 139 31 18 3 44 10 58
15 42 16 75 12 94 -11 23 -28 44 -17 104 53 55 65 90 133 82 158 -7 23 -38 34
-62 22 -10 -5 -23 -8 -29 -5 -6 2 -24 -2 -40 -8 -16 -7 -38 -13 -49 -14 -11
-1 -45 -9 -75 -18 -30 -9 -74 -18 -97 -22 l-43 -5 2 77 c3 145 -46 194 -118
118z m-1344 -1010 c29 -3 56 -7 59 -10 9 -10 -220 -228 -281 -268 -31 -20 -61
-37 -66 -37 -5 0 -15 -7 -22 -16 -18 -21 -145 -94 -183 -105 -19 -5 -35 -5
-41 1 -14 14 -9 67 8 92 9 12 16 31 16 40 0 10 11 23 25 28 14 5 25 14 25 20
0 6 14 24 30 42 17 17 30 34 30 38 0 14 196 148 220 150 8 0 38 9 65 19 28 10
53 17 56 15 3 -2 30 -6 59 -9z"/>
<path d="M14588 10926 c-60 -18 -73 -38 -71 -103 3 -49 8 -62 35 -90 41 -42
60 -48 97 -29 36 19 39 24 46 72 3 22 8 44 10 50 5 16 -37 85 -60 99 -15 9
-29 9 -57 1z"/>
<path d="M29292 10908 c-55 -12 -76 -42 -68 -100 3 -24 5 -48 5 -55 1 -6 15
-25 32 -42 63 -63 137 -28 147 68 3 39 0 57 -18 85 -28 47 -46 55 -98 44z"/>
<path d="M32838 10903 c-15 -2 -37 -16 -49 -31 -17 -22 -20 -36 -15 -77 10
-85 69 -139 126 -115 37 15 47 28 53 67 3 17 8 36 11 42 15 24 -53 122 -83
120 -9 -1 -28 -4 -43 -6z"/>
<path d="M42730 10887 c-47 -16 -61 -48 -49 -117 10 -63 51 -110 95 -110 37 0
79 47 88 98 7 47 -2 71 -42 115 -28 30 -40 32 -92 14z"/>
<path d="M13355 10436 c-16 -7 -52 -35 -80 -60 -27 -26 -67 -59 -87 -73 -21
-14 -38 -30 -38 -34 0 -5 -5 -9 -10 -9 -6 0 -16 -4 -23 -10 -7 -5 -37 -30 -66
-55 -36 -30 -61 -43 -73 -40 -19 7 -68 -21 -68 -39 0 -6 -18 -22 -40 -36 -22
-14 -40 -27 -40 -31 0 -3 -22 -20 -50 -38 -27 -18 -50 -36 -50 -41 0 -4 -12
-13 -27 -19 -58 -24 -104 -52 -109 -66 -4 -8 -14 -15 -24 -15 -10 0 -32 -13
-48 -30 -17 -16 -35 -30 -40 -30 -6 0 -23 -11 -39 -24 -15 -13 -44 -26 -63
-30 -19 -3 -60 -12 -90 -21 -97 -27 -150 -19 -150 24 0 47 12 71 36 77 13 3
24 10 24 15 0 5 16 15 36 24 20 8 38 23 41 34 3 10 17 21 31 24 15 3 48 26 73
50 25 25 55 48 67 51 11 4 28 18 37 32 10 16 22 23 32 20 8 -4 31 6 51 22 21
16 53 38 73 50 46 28 87 80 94 122 5 27 0 37 -30 65 -29 28 -45 34 -99 40 -36
4 -84 4 -108 1 -24 -4 -57 -8 -74 -9 -17 -1 -37 -7 -45 -13 -8 -6 -39 -21 -70
-33 -60 -24 -121 -79 -138 -124 -6 -15 -21 -31 -35 -36 -27 -11 -90 -117 -112
-191 -8 -28 -23 -58 -34 -68 -43 -40 -53 -117 -17 -131 15 -6 28 -24 37 -53 7
-23 20 -50 29 -58 9 -9 21 -24 27 -35 6 -10 17 -22 25 -26 59 -29 72 -31 118
-26 28 3 53 2 56 -3 13 -21 160 23 236 69 19 12 43 21 55 21 22 0 54 29 54 48
0 7 7 12 17 12 28 0 100 48 106 71 4 15 11 19 25 15 16 -5 31 6 69 49 26 30
52 55 57 55 5 0 49 32 97 70 49 39 98 71 108 73 11 2 34 18 53 36 18 18 58 46
88 63 30 17 65 40 77 51 24 21 43 16 43 -12 0 -10 -18 -49 -39 -87 -61 -106
-128 -244 -146 -298 -19 -60 -14 -105 19 -174 37 -75 95 -111 174 -107 69 4
112 17 151 44 15 11 41 25 56 31 20 7 26 16 22 29 -3 15 2 20 24 25 18 3 29
12 29 22 0 10 5 14 15 10 22 -8 139 88 274 225 64 65 94 90 124 103 19 8 38
24 42 36 5 16 12 20 27 17 11 -3 27 0 34 6 34 31 43 36 60 35 11 0 27 3 37 7
23 10 22 -4 -9 -72 -59 -132 -83 -217 -78 -281 9 -139 15 -157 64 -185 31 -18
92 -16 116 4 9 7 24 14 34 16 33 5 107 49 179 109 40 32 92 75 116 94 24 19
55 50 70 68 15 17 31 29 37 26 10 -7 78 26 78 37 0 11 98 79 114 79 7 0 19 7
27 16 7 8 25 22 40 30 l28 14 -24 -52 c-14 -29 -25 -57 -26 -63 0 -5 -20 -26
-44 -45 -23 -19 -48 -44 -54 -55 -6 -11 -20 -32 -32 -47 -16 -19 -23 -45 -27
-97 -4 -65 -2 -73 21 -105 40 -51 72 -55 115 -11 19 19 41 35 48 35 7 0 17 6
21 13 4 6 17 17 28 23 11 6 26 23 33 38 10 19 17 24 28 18 11 -6 24 0 45 19
16 15 29 31 29 37 0 5 12 18 28 28 15 9 70 54 122 99 52 45 109 88 125 97 105
55 153 77 159 71 3 -3 6 -64 6 -135 0 -71 5 -138 10 -149 7 -12 7 -25 1 -36
-18 -33 51 -143 109 -173 62 -32 128 -27 180 13 23 17 53 38 66 45 13 7 24 17
24 22 0 5 20 25 45 46 43 34 47 36 59 19 10 -14 21 -16 48 -11 35 6 35 6 41
-34 9 -70 40 -101 114 -114 26 -5 89 21 168 69 22 13 55 31 73 40 19 8 36 24
39 35 3 11 11 20 18 20 20 0 106 51 112 67 3 8 22 22 42 33 20 10 54 35 76 55
39 35 121 95 131 95 3 0 0 -9 -6 -19 -5 -11 -7 -27 -4 -35 3 -9 -1 -23 -10
-31 -9 -9 -16 -28 -16 -42 0 -14 -11 -46 -23 -72 -13 -25 -38 -76 -55 -113
-27 -58 -35 -67 -64 -73 -86 -17 -186 -50 -216 -72 -18 -14 -44 -27 -58 -29
-53 -10 -86 -31 -179 -118 -62 -57 -117 -120 -157 -179 -119 -178 -176 -373
-133 -458 26 -51 56 -79 85 -79 38 0 181 81 240 135 14 13 46 42 72 65 26 23
50 50 53 61 4 10 12 19 19 19 15 0 76 62 76 77 0 6 16 23 35 38 20 14 49 51
66 81 17 29 35 52 41 51 5 -1 18 18 27 42 10 24 29 52 44 63 14 10 39 43 56
73 17 30 36 55 41 55 6 0 27 -7 47 -15 47 -20 72 -19 110 4 61 38 47 124 -28
168 -20 12 -27 23 -23 33 3 8 13 40 22 70 8 30 20 62 27 70 18 23 61 128 85
205 11 39 33 88 48 109 24 35 27 48 26 113 -2 77 -20 123 -51 123 -9 0 -31
-11 -50 -26 -31 -24 -33 -24 -33 -5 0 11 -5 32 -12 47 -12 25 -15 26 -73 21
-38 -3 -77 -14 -105 -30 -25 -14 -68 -27 -96 -30 -117 -12 -301 -115 -436
-246 -89 -85 -93 -86 -89 -24 3 37 -15 34 -75 -13 -33 -25 -75 -54 -94 -64
-34 -17 -80 -69 -80 -89 0 -6 -6 -8 -14 -5 -7 3 -33 -15 -58 -40 -25 -26 -58
-48 -75 -52 -28 -5 -31 -3 -47 40 -17 44 -17 49 -2 81 12 25 17 68 19 162 2
125 1 129 -25 168 -32 46 -72 74 -114 76 -35 3 -59 -4 -142 -42 -34 -16 -64
-29 -67 -29 -10 0 -95 -62 -95 -69 0 -4 -18 -16 -41 -26 -22 -10 -49 -30 -60
-44 -21 -26 -72 -61 -89 -61 -6 0 -4 13 5 30 50 96 -24 246 -127 257 -46 5
-59 -3 -83 -50 -5 -12 -34 -34 -64 -49 -74 -39 -171 -98 -191 -117 -9 -9 -28
-23 -43 -31 -14 -8 -65 -46 -114 -85 -48 -38 -113 -82 -143 -99 -30 -16 -63
-36 -73 -44 -9 -8 -30 -17 -45 -18 -27 -3 -27 -2 -24 39 2 23 8 46 13 51 5 6
9 19 9 30 0 11 15 52 34 90 19 39 37 87 40 106 3 19 10 55 16 79 6 24 8 52 5
62 -11 32 -95 99 -126 99 -30 0 -96 -38 -144 -83 -17 -15 -41 -30 -55 -34 -14
-3 -36 -16 -50 -28 -14 -12 -41 -31 -60 -43 -19 -11 -50 -37 -68 -56 -19 -20
-40 -36 -47 -36 -7 0 -51 -37 -97 -81 -127 -125 -182 -163 -345 -244 -91 -44
-163 -59 -178 -36 -5 9 46 114 65 135 5 5 6 14 4 21 -3 7 3 19 14 26 10 8 24
24 30 35 11 21 59 78 114 135 41 43 44 84 13 170 -14 41 -33 95 -40 120 -8 25
-24 54 -35 64 -25 23 -87 29 -125 11z m-799 -178 c3 -4 -8 -14 -25 -22 -16 -9
-34 -22 -38 -28 -8 -13 -78 -71 -143 -119 -19 -14 -55 -36 -78 -48 l-44 -22 7
23 c19 60 48 98 102 135 97 66 196 103 219 81z m4435 -135 c-12 -23 -188 -186
-210 -194 -9 -4 -25 -17 -36 -29 -11 -12 -36 -33 -55 -47 -19 -13 -53 -37 -75
-53 -22 -16 -53 -29 -68 -30 -16 0 -43 -11 -60 -24 -32 -24 -87 -44 -87 -32 0
39 84 132 175 194 28 19 65 48 82 65 18 17 40 32 49 33 8 1 45 23 82 47 37 25
85 50 107 57 22 7 47 16 55 21 8 4 23 8 33 8 14 1 16 -3 8 -16z m-231 -700 c0
-2 -17 -28 -37 -59 -21 -31 -52 -79 -70 -107 -17 -27 -35 -53 -40 -56 -5 -3
-21 -22 -35 -41 -41 -54 -174 -190 -186 -190 -6 0 -24 -11 -41 -26 -43 -36
-144 -76 -153 -60 -4 7 0 41 8 77 26 117 50 157 147 252 96 94 171 144 258
172 30 9 60 23 68 30 11 11 81 17 81 8z"/>
<path d="M8362 10403 c-11 -10 -43 -46 -71 -80 -28 -34 -71 -74 -96 -89 -25
-14 -43 -30 -40 -34 3 -4 -8 -13 -24 -18 -15 -5 -39 -21 -53 -33 -45 -42 -82
-71 -133 -105 -102 -68 -136 -96 -146 -120 -7 -19 -14 -24 -29 -19 -15 5 -24
-1 -37 -23 -30 -52 -123 -62 -108 -12 6 22 7 127 1 195 -3 33 -6 74 -6 92 1
67 -89 126 -145 97 -15 -8 -31 -14 -36 -14 -17 0 -157 -100 -185 -132 -46 -52
-157 -139 -167 -129 -5 5 -4 26 1 47 5 22 7 66 5 99 -2 33 -3 82 -3 109 1 45
-3 52 -45 92 -48 46 -83 56 -106 28 -7 -8 -21 -13 -31 -11 -17 5 -128 -59
-143 -82 -3 -6 -27 -22 -53 -36 -26 -14 -66 -41 -89 -61 l-43 -37 0 52 c0 28
-7 67 -14 86 -17 40 -35 43 -109 21 -25 -7 -48 -12 -51 -9 -6 7 -80 -33 -95
-51 -8 -9 -44 -36 -81 -61 -71 -47 -96 -76 -111 -129 -10 -36 4 -91 26 -100
23 -8 64 18 96 62 47 64 169 137 169 102 0 -22 -30 -82 -59 -118 -93 -113
-111 -137 -111 -145 0 -4 -10 -21 -22 -37 -20 -27 -20 -34 -10 -97 15 -88 37
-118 88 -118 30 0 40 4 42 19 5 23 80 117 133 167 22 20 39 41 39 46 0 6 8 13
19 16 12 3 20 17 25 46 5 36 9 41 34 41 19 1 33 10 48 33 11 18 26 31 32 30 7
-2 18 12 26 30 15 37 89 106 154 145 52 30 61 23 56 -46 -1 -26 -5 -110 -8
-187 -6 -135 -5 -142 20 -195 30 -65 51 -90 74 -90 17 0 60 42 130 129 19 24
59 66 88 94 28 28 52 58 52 67 0 10 18 30 40 45 22 15 40 31 40 36 0 4 16 20
36 35 29 22 37 25 44 14 5 -8 7 -17 4 -22 -3 -4 -7 -50 -10 -103 -5 -70 -3
-99 7 -111 7 -9 12 -35 10 -59 -1 -36 3 -49 31 -80 31 -36 102 -75 135 -75 8
0 42 26 76 59 34 32 77 66 95 75 17 9 32 21 32 27 0 5 13 15 30 20 16 6 32 18
35 28 6 21 109 111 126 111 6 0 34 20 60 45 27 25 60 50 73 57 14 6 28 19 31
29 4 11 18 19 37 21 26 2 33 9 40 36 6 23 14 32 29 32 15 0 19 -5 15 -17 -3
-10 -8 -31 -12 -48 -4 -16 -10 -34 -14 -40 -4 -5 -13 -35 -20 -65 -7 -30 -17
-64 -22 -75 -4 -11 -24 -67 -42 -125 -28 -84 -42 -113 -73 -144 -21 -21 -50
-56 -64 -78 -15 -22 -36 -46 -48 -54 -11 -8 -21 -23 -21 -34 0 -10 -15 -36
-32 -59 -60 -75 -74 -95 -111 -163 -21 -37 -42 -70 -48 -74 -19 -11 -70 -135
-89 -214 -21 -87 -16 -130 24 -205 36 -66 64 -95 94 -95 55 0 158 93 199 180
24 50 63 141 63 145 0 3 19 45 42 93 23 48 43 95 45 105 2 10 10 31 18 47 8
16 15 36 15 44 0 16 13 48 65 161 18 39 41 95 51 125 33 99 35 100 92 41 45
-47 53 -51 95 -51 25 0 49 5 52 10 3 6 24 10 46 10 22 0 64 11 95 26 30 14 60
23 67 21 6 -3 31 6 55 20 23 13 47 21 53 18 5 -4 21 0 34 9 13 9 33 16 44 16
11 0 29 14 41 31 12 16 28 28 35 25 14 -5 79 37 104 67 7 9 20 17 28 17 9 0
33 18 55 40 22 22 48 40 58 40 28 0 79 30 85 50 4 11 12 20 18 20 7 0 25 14
42 31 33 34 43 25 25 -24 -11 -31 -24 -98 -35 -182 -7 -56 32 -132 98 -190
102 -91 145 -98 280 -50 78 29 118 49 160 83 16 12 34 22 40 22 25 0 107 83
138 138 18 31 40 66 51 78 10 11 20 36 22 55 2 19 7 42 11 52 4 10 5 51 3 92
-5 73 -32 139 -64 158 -10 6 -11 13 -2 32 20 44 -2 69 -89 105 -87 37 -128 41
-190 17 -23 -9 -57 -19 -75 -22 -44 -8 -151 -58 -196 -93 -21 -15 -50 -33 -65
-40 -30 -13 -72 -44 -175 -129 -35 -29 -67 -53 -71 -53 -5 0 -31 -18 -57 -40
-27 -22 -64 -47 -84 -56 -19 -9 -50 -28 -68 -41 -51 -38 -50 -20 2 39 26 30
51 71 57 93 6 22 18 59 26 83 48 136 -10 265 -117 261 -19 -1 -39 -1 -45 1 -5
1 -12 1 -15 0 -3 -1 -14 -3 -25 -5 -11 -2 -35 -7 -54 -10 -36 -7 -73 -30 -120
-76 -14 -14 -34 -28 -44 -32 -30 -11 -144 -96 -192 -142 -24 -24 -46 -41 -48
-37 -2 4 5 50 17 102 26 113 21 148 -25 196 -37 38 -75 44 -107 17z m598 -222
c0 -48 -73 -162 -180 -278 -17 -18 -30 -38 -30 -44 0 -7 -3 -10 -6 -6 -3 3
-27 -8 -52 -24 -55 -35 -55 -35 -91 -8 -26 19 -33 20 -87 9 -37 -7 -73 -23
-96 -41 -43 -34 -53 -36 -38 -9 6 11 8 20 5 20 -3 0 2 14 12 30 9 17 21 30 25
30 4 0 8 5 8 11 0 17 111 139 126 139 7 0 23 14 36 30 12 17 26 30 31 30 5 0
27 18 49 40 22 22 47 41 54 41 23 2 27 4 96 38 42 20 74 30 87 26 10 -3 23 -1
26 6 10 15 25 -8 25 -40z m1026 9 c-20 -22 -36 -47 -36 -56 0 -21 19 -55 42
-74 11 -8 20 -29 20 -46 1 -49 -55 -155 -116 -219 -31 -32 -56 -62 -56 -66 0
-5 -6 -9 -13 -9 -7 0 -18 -9 -25 -20 -7 -11 -18 -20 -25 -20 -6 0 -23 -9 -37
-20 -33 -26 -121 -28 -141 -3 -9 10 -14 41 -14 82 0 36 -4 72 -9 80 -6 9 -4
18 8 26 9 7 23 35 31 63 9 28 31 70 50 94 19 24 45 58 56 76 12 17 27 32 33
32 7 0 21 9 31 20 10 11 21 17 26 15 4 -3 14 4 22 16 11 14 21 19 35 15 20 -7
105 25 116 43 4 6 14 11 23 11 10 0 4 -13 -21 -40z m-1956 -774 c0 -8 -72
-211 -101 -284 -36 -90 -127 -245 -139 -237 -9 5 -6 35 9 90 4 17 7 40 5 51
-2 12 3 27 11 34 8 7 18 30 21 51 4 25 21 55 45 83 22 24 39 54 39 66 0 26 27
80 41 80 5 0 17 16 25 35 8 19 21 35 29 35 8 0 15 -2 15 -4z"/>
<path d="M28160 10380 c-17 -11 -79 -30 -125 -37 -33 -6 -180 -77 -190 -93 -4
-6 -27 -22 -53 -36 -85 -45 -226 -162 -246 -204 -7 -14 -10 -43 -6 -65 4 -35
8 -40 30 -40 16 0 28 8 35 23 5 12 15 22 22 22 7 0 23 11 37 25 39 39 45 30
25 -35 -10 -33 -22 -96 -25 -139 -6 -69 -4 -85 16 -125 23 -49 102 -126 160
-155 22 -12 52 -18 80 -16 47 2 159 37 197 61 12 8 29 14 36 14 8 0 22 9 33
21 10 11 32 27 49 34 46 20 107 84 145 150 18 33 38 63 43 66 15 11 38 121 37
179 -1 94 -19 146 -62 178 -14 11 -15 16 -6 32 9 13 9 27 2 47 -15 45 -198
118 -234 93z m102 -203 c-43 -45 -44 -92 -1 -136 25 -27 29 -37 24 -64 -14
-64 -63 -153 -114 -202 -28 -28 -51 -56 -51 -62 0 -7 -7 -13 -15 -13 -7 0 -18
-7 -22 -14 -13 -24 -115 -72 -148 -70 -16 1 -37 2 -46 3 -22 1 -31 38 -33 129
-2 50 2 76 11 84 7 6 13 16 13 23 0 56 102 199 177 249 25 16 47 35 50 43 4 9
15 12 37 8 23 -4 43 2 81 24 65 39 76 39 37 -2z"/>
<path d="M10659 10295 c-52 -47 -99 -85 -106 -85 -7 0 -16 -7 -21 -16 -5 -8
-16 -16 -24 -18 -9 -1 -30 -16 -46 -34 -17 -18 -37 -32 -46 -32 -21 0 -76 -61
-76 -85 0 -53 67 -87 102 -51 17 16 147 106 155 106 10 0 -8 -53 -27 -79 -31
-45 -80 -157 -81 -187 -1 -16 -4 -40 -8 -54 -5 -14 -2 -44 5 -70 8 -25 14 -46
14 -47 0 -2 0 -10 0 -19 0 -27 56 -74 87 -74 54 0 243 128 283 191 13 22 45
61 70 88 25 26 56 64 70 83 l26 36 -1 -112 c0 -100 2 -115 25 -154 13 -24 44
-56 69 -72 85 -57 180 -37 314 63 20 16 37 35 37 43 0 7 17 23 38 34 23 12 54
45 82 85 25 36 60 84 78 106 17 23 32 52 32 65 0 14 6 27 14 30 23 9 58 130
53 182 -4 38 -11 52 -49 88 -43 40 -48 43 -94 39 -38 -3 -54 -10 -73 -31 -25
-30 -25 -40 4 -143 l15 -54 -38 -64 c-20 -35 -43 -75 -49 -87 -22 -41 -91
-103 -161 -144 -78 -47 -127 -60 -135 -38 -8 21 18 162 41 223 11 28 18 53 16
55 -2 2 8 17 22 33 49 57 15 162 -70 215 -26 16 -40 19 -54 11 -10 -5 -46 -55
-81 -110 -35 -56 -67 -101 -72 -101 -5 0 -15 -12 -21 -27 -7 -16 -23 -37 -35
-48 -13 -11 -25 -31 -26 -44 -1 -15 -10 -27 -27 -33 -14 -4 -35 -24 -48 -43
-13 -22 -30 -35 -43 -35 -12 0 -23 -8 -26 -20 -3 -11 -9 -20 -14 -20 -4 0 -18
-11 -31 -24 -19 -20 -78 -45 -78 -33 0 2 8 28 19 58 20 56 69 148 119 221 48
71 72 135 72 195 0 49 -4 59 -34 89 -19 19 -43 34 -54 34 -11 0 -62 -38 -113
-85z"/>
<path d="M30137 10364 c-4 -4 -25 -7 -46 -6 -24 2 -43 -3 -51 -13 -7 -8 -21
-15 -32 -15 -30 0 -91 -35 -157 -90 -33 -27 -64 -50 -70 -50 -16 0 -70 -72
-64 -86 3 -8 -1 -14 -11 -14 -19 0 -74 -72 -83 -109 -3 -14 -15 -32 -25 -41
-10 -8 -20 -24 -22 -35 -2 -11 -11 -40 -20 -65 -9 -25 -16 -53 -16 -63 0 -36
33 -118 55 -135 12 -10 27 -27 33 -39 18 -33 96 -72 132 -66 17 2 37 0 44 -6
28 -23 126 -8 134 21 4 15 10 18 32 13 16 -4 31 -1 35 5 8 12 72 42 98 45 10
1 36 19 57 40 22 21 45 40 53 41 20 3 105 63 126 90 12 15 25 22 35 18 10 -4
35 11 72 45 30 28 60 50 66 48 7 -1 14 7 16 17 2 11 15 29 29 39 19 16 24 27
20 51 -2 17 0 38 6 47 14 22 2 49 -21 49 -24 0 -99 -56 -107 -80 -3 -10 -12
-17 -18 -14 -7 2 -45 -19 -84 -48 -92 -68 -141 -98 -158 -98 -8 0 -17 -5 -21
-11 -3 -6 -30 -22 -58 -34 -29 -13 -58 -30 -65 -39 -7 -9 -22 -16 -32 -16 -11
0 -28 -9 -40 -21 -12 -12 -26 -22 -33 -23 -6 -1 -15 -4 -21 -8 -15 -9 -124
-28 -166 -28 -20 0 -42 6 -48 14 -14 17 -3 105 16 127 7 9 11 23 7 32 -3 9 4
25 18 38 13 12 43 52 68 88 25 35 57 72 71 80 37 23 152 99 164 108 10 8 35
12 100 15 17 1 46 -6 64 -15 45 -23 60 -21 102 8 44 29 53 59 35 111 -14 43
-70 89 -95 78 -18 -7 -22 -7 -76 1 -22 4 -43 3 -48 -1z"/>
<path d="M31025 10357 c-27 -5 -63 -15 -80 -22 -16 -8 -48 -21 -70 -30 -47
-19 -125 -91 -125 -116 0 -9 -16 -26 -35 -37 -25 -15 -45 -42 -74 -100 -22
-44 -43 -92 -45 -108 -3 -15 -17 -40 -32 -55 -18 -19 -28 -42 -31 -72 -4 -38
-1 -46 19 -59 13 -9 30 -36 38 -59 17 -53 66 -106 119 -130 31 -14 48 -15 82
-8 28 7 46 6 53 -1 5 -5 19 -10 31 -10 23 0 163 52 197 74 13 7 40 19 61 26
23 7 43 21 49 36 6 13 19 24 29 24 25 0 93 47 102 72 6 16 10 18 21 9 11 -10
25 0 67 49 30 33 58 60 64 60 21 1 53 38 74 84 20 46 29 135 15 149 -9 8 -64
-21 -64 -33 0 -6 -20 -25 -45 -42 -28 -20 -45 -40 -45 -52 0 -17 -2 -18 -10
-6 -7 11 -18 6 -59 -28 -27 -23 -54 -42 -59 -42 -5 0 -17 -9 -27 -20 -10 -11
-24 -20 -31 -20 -7 0 -26 -11 -42 -25 -16 -13 -32 -22 -34 -19 -3 3 -19 -8
-34 -23 -16 -15 -46 -37 -67 -47 -20 -11 -37 -23 -37 -28 0 -4 -14 -8 -30 -8
-17 0 -44 -7 -60 -15 -16 -8 -62 -18 -102 -21 -87 -8 -101 2 -91 59 6 37 32
61 105 93 14 7 29 21 32 32 4 11 19 22 34 25 15 3 48 26 75 51 26 25 54 46 62
46 8 0 22 11 31 25 9 14 25 25 36 25 22 0 91 47 160 110 64 59 75 107 33 150
-45 47 -131 59 -260 37z m105 -127 c0 -5 -5 -10 -10 -10 -6 0 -21 -10 -34 -22
-87 -87 -276 -215 -276 -188 0 6 11 32 25 59 25 51 89 105 167 140 60 28 128
39 128 21z"/>
<path d="M35885 10359 c-27 -6 -62 -10 -77 -10 -15 0 -32 -7 -38 -14 -6 -8
-33 -21 -59 -30 -51 -17 -151 -102 -151 -129 0 -8 -13 -23 -30 -32 -31 -19
-120 -177 -120 -214 0 -11 -13 -34 -28 -52 -16 -18 -32 -48 -35 -66 -6 -28 -2
-37 23 -61 17 -15 36 -47 43 -72 7 -24 16 -42 20 -39 4 3 16 -10 27 -27 26
-44 81 -66 143 -58 32 4 54 2 63 -6 11 -9 32 -6 97 16 45 15 102 39 127 52 24
14 53 27 65 29 11 2 30 16 43 31 12 16 27 27 33 25 16 -4 99 58 99 75 0 10 6
13 16 9 11 -4 39 15 90 64 41 38 78 70 84 70 5 0 21 24 35 53 26 56 34 140 14
153 -14 9 -57 -15 -64 -35 -3 -9 -17 -24 -32 -33 -16 -9 -39 -26 -53 -37 -106
-89 -130 -105 -193 -131 -15 -7 -32 -21 -38 -31 -5 -10 -18 -19 -28 -19 -10 0
-26 -9 -37 -21 -10 -12 -32 -28 -49 -36 -16 -9 -38 -23 -48 -31 -10 -9 -30
-18 -45 -20 -15 -2 -50 -11 -80 -21 -57 -20 -145 -22 -163 -4 -18 18 2 96 26
103 27 7 105 61 105 72 0 5 15 16 33 24 39 17 85 51 110 81 10 12 23 20 30 17
7 -2 20 9 30 26 11 18 26 30 39 30 31 0 157 89 190 134 15 21 28 51 28 67 0
38 -49 85 -97 92 -21 3 -51 8 -68 10 -16 3 -52 1 -80 -4z m60 -129 c3 -5 -5
-15 -19 -22 -14 -6 -26 -14 -26 -18 0 -11 -201 -163 -233 -177 -47 -21 -49
-16 -18 45 23 46 41 65 92 99 35 23 67 43 71 43 4 1 29 10 55 20 57 22 70 23
78 10z"/>
<path d="M43540 10356 c-14 -8 -52 -19 -85 -26 -66 -13 -173 -65 -231 -111
-20 -16 -42 -29 -48 -29 -14 0 -146 -98 -146 -109 0 -10 -78 -61 -94 -61 -7 0
-57 -36 -112 -80 -54 -44 -129 -96 -166 -115 -37 -20 -70 -40 -73 -45 -3 -6
-17 -10 -31 -10 -22 0 -24 4 -24 44 0 25 5 48 11 51 5 4 9 17 7 30 -1 12 3 30
11 39 7 9 10 16 5 16 -4 0 2 10 13 23 11 12 24 36 28 52 5 17 9 35 11 40 2 6
5 19 8 30 30 129 29 141 -20 186 -35 32 -67 49 -91 49 -20 0 -74 -35 -144 -92
-25 -21 -55 -38 -66 -38 -11 0 -26 -7 -34 -16 -7 -9 -33 -30 -58 -47 -25 -17
-53 -39 -61 -49 -8 -9 -30 -25 -49 -35 -19 -10 -35 -28 -37 -38 -2 -11 -5 -34
-9 -52 -5 -31 13 -63 36 -63 21 0 49 22 64 49 9 19 26 32 46 36 19 4 37 18 48
36 11 20 21 27 33 23 10 -3 32 5 50 19 18 13 39 22 46 20 7 -3 19 1 28 7 8 7
17 10 20 7 6 -6 -23 -96 -36 -112 -8 -10 -37 -84 -44 -115 -3 -8 -10 -37 -16
-63 -7 -28 -10 -65 -6 -90 4 -23 9 -60 11 -82 7 -77 95 -118 172 -81 90 44
158 81 173 95 10 9 48 41 86 71 107 87 153 130 159 151 5 14 12 17 35 12 25
-4 31 -1 41 21 7 14 17 26 23 26 6 0 24 14 41 31 33 34 43 25 25 -24 -17 -46
-31 -134 -32 -192 -1 -68 27 -121 99 -182 78 -68 109 -82 163 -77 76 7 241 74
271 110 6 8 18 14 26 14 27 0 122 92 155 149 17 31 40 68 51 82 11 15 20 40
21 56 2 16 6 35 10 41 4 7 6 43 5 82 -2 76 -23 134 -59 168 -19 18 -21 24 -10
37 19 22 4 63 -30 80 -40 21 -164 65 -181 65 -8 -1 -25 -7 -39 -14z m129 -189
c-55 -46 -61 -112 -13 -143 17 -12 24 -25 24 -49 0 -55 -52 -155 -113 -219
-32 -32 -57 -63 -57 -67 0 -5 -6 -9 -14 -9 -8 0 -16 -6 -19 -13 -9 -23 -104
-67 -145 -67 -62 0 -75 16 -77 96 -1 39 -5 76 -9 83 -5 8 0 20 13 32 12 11 21
26 21 34 0 29 48 121 79 149 17 17 31 36 31 43 0 7 13 19 28 27 16 8 34 22 41
30 7 9 17 13 22 11 4 -3 13 4 19 16 9 15 18 19 35 15 25 -6 72 11 120 43 37
26 48 16 14 -12z"/>
<path d="M39657 10354 c-4 -4 -25 -7 -46 -6 -24 2 -43 -3 -51 -13 -7 -8 -22
-15 -33 -15 -29 0 -134 -62 -184 -108 -23 -22 -44 -37 -46 -35 -5 5 -67 -65
-67 -76 0 -4 -18 -27 -40 -50 -22 -23 -43 -54 -46 -69 -4 -15 -17 -40 -30 -55
-13 -15 -26 -44 -30 -65 -4 -20 -13 -52 -21 -69 -11 -28 -11 -38 1 -68 8 -19
13 -35 10 -35 -11 0 28 -60 45 -70 11 -5 23 -19 26 -30 9 -30 99 -73 135 -65
19 4 37 1 53 -10 21 -13 31 -14 71 -3 25 7 46 15 46 18 1 21 19 31 37 21 16
-8 24 -6 39 10 9 11 41 26 69 34 33 10 64 28 85 50 19 19 39 35 45 35 16 0
132 86 144 107 8 14 12 15 22 6 9 -9 16 -7 31 12 10 13 41 38 68 56 28 18 50
35 50 39 0 4 14 22 31 40 25 26 30 38 25 62 -3 16 -2 37 3 47 5 9 6 23 1 30
-13 22 -55 5 -102 -41 -24 -23 -46 -41 -50 -40 -9 2 -72 -40 -101 -68 -13 -12
-57 -40 -98 -63 -40 -22 -96 -53 -124 -69 -27 -15 -69 -37 -92 -47 -22 -11
-46 -28 -52 -38 -6 -10 -11 -14 -11 -10 0 4 -9 3 -19 -3 -35 -18 -185 -37
-209 -27 -20 9 -22 16 -18 64 2 30 9 60 15 66 6 6 11 23 11 38 0 17 9 35 23
46 12 10 43 48 67 85 25 37 55 72 68 77 12 6 42 25 65 41 76 56 118 80 127 75
5 -3 20 -1 35 5 27 10 98 -3 120 -22 20 -18 57 -7 96 30 l40 37 -16 53 c-16
53 -46 84 -82 82 -10 0 -27 -1 -38 -1 -11 -1 -36 2 -55 6 -19 4 -38 3 -43 -1z"/>
<path d="M27505 10343 c-49 -13 -214 -169 -344 -323 -30 -36 -83 -95 -118
-132 -34 -36 -63 -71 -63 -77 0 -6 -5 -11 -11 -11 -6 0 -20 -11 -31 -25 -27
-34 -35 -31 -30 10 2 19 -1 42 -7 49 -9 11 -9 16 2 23 19 11 47 87 47 127 0
18 6 38 13 44 7 6 14 24 15 40 1 17 8 45 16 63 8 19 13 54 11 79 -3 37 -10 51
-40 79 -31 28 -43 32 -71 28 -54 -9 -183 -76 -222 -115 -12 -12 -28 -22 -35
-22 -7 0 -18 -9 -25 -20 -7 -11 -18 -20 -26 -20 -16 0 -116 -104 -116 -120 0
-6 14 -25 31 -42 l30 -31 27 24 c15 13 37 34 49 47 12 12 29 22 37 22 8 0 19
14 25 31 8 24 15 30 33 27 13 -2 32 6 43 17 l20 20 3 -22 c2 -12 -6 -42 -17
-67 -11 -25 -27 -82 -36 -128 -10 -46 -21 -88 -26 -95 -6 -6 -14 -39 -20 -73
-9 -58 -8 -65 17 -108 38 -65 100 -129 130 -135 30 -5 109 55 134 102 8 16 28
42 43 58 16 15 47 52 69 82 22 29 53 60 68 69 16 9 35 31 44 49 9 18 19 33 24
33 4 0 31 21 59 48 69 64 111 98 153 125 45 29 99 51 107 44 3 -4 18 0 34 8
15 8 38 15 51 15 28 0 68 57 68 95 0 39 -66 105 -110 110 -19 2 -44 1 -55 -2z"/>
<path d="M29041 10342 c-19 -6 -68 -40 -122 -83 -24 -20 -55 -40 -68 -44 -14
-4 -52 -30 -85 -57 -34 -27 -82 -62 -108 -79 -42 -28 -47 -35 -53 -81 -6 -38
-4 -54 8 -65 22 -23 65 -8 85 28 10 18 28 32 45 36 15 3 38 18 52 34 13 16 31
29 40 29 9 0 29 8 43 19 15 10 44 21 66 25 35 7 38 6 31 -11 -4 -10 -13 -33
-20 -51 -6 -18 -17 -38 -23 -44 -7 -7 -12 -18 -12 -24 0 -7 -5 -25 -12 -41 -6
-15 -12 -30 -13 -33 -24 -97 -27 -119 -20 -193 8 -96 13 -108 59 -136 35 -22
74 -21 126 4 98 46 146 72 160 85 9 8 50 42 90 75 129 106 159 136 171 173 6
20 16 42 21 49 5 6 8 26 6 44 -4 43 -27 45 -75 5 -61 -52 -199 -156 -206 -156
-3 0 -29 -13 -57 -30 -28 -16 -61 -32 -73 -34 -23 -4 -23 -3 -15 48 5 28 10
62 11 76 1 14 15 47 32 74 30 51 52 132 62 221 4 48 3 52 -34 88 -39 37 -86
58 -112 49z"/>
<path d="M32540 10309 c-25 -17 -61 -45 -81 -63 -20 -17 -41 -30 -46 -29 -6 2
-23 -7 -39 -20 -16 -13 -45 -33 -64 -44 -19 -12 -51 -38 -69 -57 -19 -20 -40
-36 -47 -36 -20 0 -32 -23 -39 -77 -5 -46 -4 -53 14 -63 26 -13 46 -4 88 44
17 20 40 36 51 36 21 0 52 29 52 49 0 8 6 11 16 7 9 -3 29 4 46 16 17 12 41
22 52 23 12 1 29 6 40 10 16 7 17 5 11 -16 -3 -13 -17 -46 -31 -72 -13 -27
-24 -55 -24 -63 0 -8 -6 -25 -14 -37 -22 -37 -39 -142 -32 -200 4 -28 9 -65
11 -82 5 -47 55 -84 110 -83 25 0 50 7 56 14 6 8 17 14 24 14 26 0 126 60 195
117 39 32 91 74 115 93 25 20 55 49 67 65 15 20 30 29 44 27 12 -2 38 12 65
35 65 56 108 85 118 79 5 -3 17 4 27 15 10 12 31 27 45 34 l26 14 -24 -46
c-12 -26 -23 -55 -23 -65 0 -10 -4 -18 -8 -18 -14 0 -92 -78 -92 -92 0 -7 -9
-19 -19 -25 -40 -25 -55 -161 -24 -213 16 -27 51 -50 76 -50 7 0 27 16 46 35
19 19 40 35 48 35 7 0 16 7 19 15 3 8 14 17 25 20 10 3 24 18 32 33 8 16 20
26 30 24 19 -3 77 36 77 53 0 6 21 27 48 46 26 20 84 68 129 108 46 39 86 71
89 71 4 0 38 16 75 35 103 52 100 55 98 -82 -2 -209 12 -276 69 -336 38 -40
69 -54 127 -58 40 -3 58 2 90 22 22 15 46 34 54 43 7 9 19 16 25 16 7 0 22 14
35 31 12 16 46 45 74 63 29 19 81 66 116 105 61 69 63 74 66 131 4 75 -5 76
-83 16 -32 -24 -72 -51 -90 -60 -17 -9 -44 -34 -58 -56 -15 -22 -33 -40 -41
-40 -9 0 -32 -17 -52 -38 -20 -21 -48 -44 -63 -50 -27 -11 -29 -10 -53 38
l-25 49 20 33 c15 26 20 58 24 148 5 133 -8 175 -71 231 -33 29 -41 31 -87 26
-66 -7 -186 -60 -258 -113 -31 -24 -70 -50 -87 -58 -16 -9 -36 -25 -45 -37
-15 -22 -69 -59 -87 -59 -6 0 -5 8 2 21 6 12 13 45 15 73 7 97 -64 189 -149
190 -36 1 -44 -3 -64 -34 -13 -19 -47 -47 -75 -63 -83 -44 -182 -108 -196
-125 -6 -9 -18 -17 -26 -18 -7 -1 -64 -42 -127 -91 -63 -49 -135 -99 -160
-110 -25 -12 -51 -28 -58 -37 -8 -9 -26 -16 -40 -16 -27 0 -27 0 -19 53 5 28
9 61 10 72 1 11 10 34 20 50 40 66 82 209 80 269 -2 45 -83 116 -131 116 -14
0 -46 -14 -71 -31z"/>
<path d="M20093 10307 c-26 -6 -59 -25 -85 -48 -23 -22 -49 -39 -59 -39 -10 0
-26 -11 -35 -25 -9 -14 -22 -25 -30 -25 -8 0 -19 -8 -25 -19 -7 -10 -20 -16
-29 -14 -29 8 -88 -73 -91 -126 -3 -38 0 -45 23 -57 23 -12 27 -11 43 6 10 11
24 20 32 20 7 0 13 7 13 16 0 8 5 12 10 9 6 -4 31 7 57 24 25 17 48 29 50 27
5 -5 -16 -48 -27 -56 -4 -3 -23 -36 -43 -75 -60 -113 -48 -182 47 -283 35 -38
67 -56 114 -67 29 -6 40 -1 89 37 30 23 71 59 89 77 19 19 34 31 34 26 0 -5
14 4 30 20 17 16 30 35 30 42 0 7 5 13 11 13 14 0 100 76 114 101 9 17 13 19
34 19 4 0 24 15 43 33 20 17 44 39 54 47 11 9 27 27 36 40 l17 25 0 -42 c1
-23 -3 -45 -9 -48 -5 -3 -10 -23 -10 -43 0 -21 -6 -46 -13 -57 -8 -11 -15 -44
-16 -73 -2 -46 2 -58 30 -95 57 -74 102 -117 124 -117 12 0 36 16 55 35 19 19
38 35 43 35 5 0 37 25 70 55 34 30 68 53 75 50 7 -3 49 31 94 75 44 44 87 80
95 80 20 0 52 41 53 67 0 21 -36 93 -47 93 -16 0 -106 -76 -118 -100 -8 -15
-25 -30 -38 -34 -13 -3 -44 -27 -69 -53 -25 -27 -69 -60 -97 -75 -46 -25 -51
-26 -51 -10 0 10 4 22 8 28 5 5 15 36 22 69 7 33 32 104 56 157 49 106 52 150
12 178 -12 8 -37 30 -56 48 -38 35 -84 42 -125 20 -38 -20 -142 -112 -205
-181 -33 -37 -91 -91 -128 -121 -38 -30 -95 -79 -127 -108 -33 -29 -71 -59
-85 -67 -15 -8 -41 -25 -59 -38 -59 -45 -62 -17 -12 96 16 35 29 70 29 77 0 8
7 14 15 14 8 0 15 4 15 9 0 5 6 16 14 23 18 19 46 74 46 92 0 8 9 20 20 26 39
21 22 87 -41 155 -44 47 -49 49 -116 32z"/>
<path d="M44312 10249 c-41 -49 -96 -99 -110 -99 -17 0 -125 -66 -162 -100
-47 -42 -75 -141 -48 -168 19 -19 44 -14 75 16 41 41 116 90 130 85 7 -3 16 2
19 11 3 8 20 22 37 31 38 19 39 19 28 -2 -22 -41 -41 -87 -41 -100 0 -7 -6
-13 -12 -13 -7 -1 -27 -18 -45 -38 -93 -108 -98 -118 -102 -207 -3 -57 19 -94
70 -121 30 -15 31 -15 71 25 22 23 46 41 53 41 7 0 15 7 19 15 3 8 12 15 21
15 9 0 23 16 31 36 12 29 18 33 29 24 11 -10 21 -7 44 12 16 12 32 33 35 46 4
12 12 22 19 22 6 0 64 45 127 99 63 55 126 102 139 106 14 3 36 14 50 24 35
24 90 45 98 37 3 -3 6 -27 5 -53 0 -27 -2 -83 -2 -125 -1 -42 1 -82 5 -89 5
-7 8 -28 7 -47 -2 -42 16 -87 53 -130 37 -44 79 -64 139 -67 42 -3 57 2 93 26
24 17 43 34 43 39 0 6 9 10 20 10 11 0 24 8 28 19 8 20 82 86 110 96 9 4 49
42 89 85 67 72 71 80 71 123 0 25 3 50 6 56 13 20 -29 21 -54 1 -14 -11 -55
-41 -92 -65 -63 -43 -108 -90 -108 -114 0 -6 -7 -8 -15 -5 -9 4 -31 -9 -57
-35 -23 -22 -55 -45 -71 -50 -27 -10 -29 -9 -52 41 -23 50 -23 51 -5 77 15 20
21 52 26 146 6 110 5 124 -14 160 -57 111 -131 128 -264 63 -42 -21 -78 -38
-81 -38 -12 0 -82 -52 -90 -66 -5 -8 -25 -22 -46 -30 -21 -8 -47 -27 -58 -42
-11 -15 -35 -36 -53 -46 l-33 -19 8 24 c4 13 9 54 9 90 1 56 -3 72 -27 107
-32 50 -59 68 -110 76 -30 5 -41 2 -55 -15z"/>
</g>
</svg>
